<?xml version="1.0" encoding="UTF-8" standalone="no"?>
<svg
   width="1367.0485"
   height="531.40527"
   viewBox="0 0 1367.0484 531.40528"
   fill="none"
   version="1.1"
   id="svg6"
   xmlns="http://www.w3.org/2000/svg"
   xmlns:svg="http://www.w3.org/2000/svg">
  <defs
     id="defs6" />
  <path
     d="m 1210.6297,471.14097 c -2.2,0 -4.41,-0.098 -6.61,-0.312 -23.51,-2.279 -45.89,-16.81 -58.42,-37.934 -5.84,-9.841 -9.31,-20.55 -10.04,-30.965 -1.31,-18.549 6.12,-38.82 20.4,-55.598 10.24,-12.021 22.46,-20.779 35.38,-25.322 10.84,-3.821 22.56,-4.838 33.9,-2.969 10.89,1.804 20.07,6.167 26.54,12.596 5.59,5.56 9.73,13.055 13.04,23.584 7.15,22.764 6.32,45.43 -2.35,63.831 -9.93,21.026 -30.64,35.114 -51.6,35.114 -0.07,0 -0.13,0 -0.2,0 -8.98,-0.033 -18.67,-2.559 -28.79,-7.512 -10.11,-4.936 -23.59,-13.842 -30.4,-28.258 -4.89,-10.381 -5.93,-22.993 -2.93,-35.491 2.56,-10.627 7.95,-21.239 16.07,-31.522 5.6,-7.118 11.23,-12.481 17.22,-16.417 13.4,-8.79 30.55,-11.251 45.87,-6.576 7.66,2.345 13.98,6.248 18.27,11.283 4.72,5.56 7.15,12.514 9.07,19.222 2.29,7.954 4.47,17.384 3.39,27.044 -1.02,9.234 -5,18.648 -12.17,28.783 -6.21,8.791 -12.63,15.04 -19.66,19.107 -17.03,9.89 -39.98,7.167 -54.55,-6.462 -14.16,-13.235 -19,-36.048 -11.5,-54.253 7.38,-17.959 26.24,-30.784 45.83,-31.194 6.97,-0.147 13.49,1.23 18.87,3.953 12.01,6.084 19.82,19.959 19.41,34.523 -0.36,12.973 -7.1,26.274 -18.02,35.589 -4.83,4.117 -9.51,6.708 -14.31,7.938 -8.36,2.132 -17.87,0.049 -25.41,-5.592 -6.83,-5.101 -11.74,-12.826 -13.46,-21.19 -1.18,-5.675 -1.01,-11.858 0.47,-18.369 1.89,-8.266 5.61,-14.563 10.77,-18.221 8,-5.674 18.61,-4.74 26.96,-3.296 4.27,0.738 9.19,1.755 13.35,4.444 7.23,4.674 11.06,14.039 9.32,22.797 -1.66,8.332 -8.12,15.499 -16.43,18.287 -8.7,2.903 -18.71,0.475 -24.35,-5.921 -6.24,-7.085 -6.29,-18.549 -0.1,-25.011 2.97,-3.099 7.27,-5.133 12.11,-5.74 5.22,-0.64 10.06,0.623 13.27,3.477 2.98,2.64 4.43,6.855 3.89,11.251 -0.55,4.395 -2.98,8.118 -6.51,9.939 -3.41,1.754 -7.37,1.738 -10.35,-0.05 -3.56,-2.132 -5.17,-6.625 -3.7,-10.25 0.83,-2.017 2.65,-3.592 4.89,-4.182 2.08,-0.558 4.18,-0.181 5.77,1.049 1.07,0.837 1.27,2.379 0.44,3.445 -0.84,1.082 -2.37,1.279 -3.43,0.442 -0.5,-0.393 -1.22,-0.262 -1.51,-0.18 -0.75,0.197 -1.39,0.722 -1.63,1.312 -0.56,1.345 0.23,3.297 1.66,4.166 1.53,0.902 3.73,0.869 5.62,-0.099 2.11,-1.082 3.56,-3.394 3.9,-6.166 0.34,-2.788 -0.51,-5.38 -2.27,-6.954 -2.17,-1.919 -5.6,-2.755 -9.43,-2.28 -3.74,0.459 -7,1.985 -9.18,4.264 -4.42,4.609 -4.3,13.186 0.24,18.336 4.39,4.97 12.26,6.823 19.15,4.51 6.59,-2.197 11.89,-8.069 13.19,-14.596 1.34,-6.708 -1.68,-14.154 -7.15,-17.696 -3.39,-2.198 -7.57,-3.051 -11.54,-3.74 -7.42,-1.279 -16.77,-2.165 -23.31,2.46 -5.26,3.723 -7.69,10.382 -8.82,15.302 -1.32,5.822 -1.48,11.3 -0.45,16.27 1.48,7.199 5.7,13.842 11.58,18.237 6.38,4.773 14.35,6.544 21.31,4.773 4.07,-1.034 8.11,-3.313 12.35,-6.921 9.89,-8.43 15.97,-20.386 16.3,-31.982 0.36,-12.694 -6.37,-24.748 -16.72,-29.996 -4.68,-2.362 -10.4,-3.526 -16.58,-3.428 -17.72,0.361 -34.73,11.94 -41.41,28.143 -6.73,16.385 -2.4,36.885 10.31,48.776 12.85,12.005 33.82,14.498 48.78,5.806 6.39,-3.707 12.33,-9.496 18.11,-17.697 6.68,-9.43 10.37,-18.106 11.31,-26.487 0.98,-8.807 -1.09,-17.647 -3.22,-25.125 -1.78,-6.167 -3.98,-12.53 -8.1,-17.385 -3.69,-4.33 -9.21,-7.708 -15.98,-9.775 -13.93,-4.264 -29.55,-2.017 -41.77,5.986 -5.54,3.641 -10.79,8.66 -16.07,15.351 -7.66,9.726 -12.76,19.698 -15.14,29.62 -2.74,11.415 -1.82,22.862 2.59,32.227 6.2,13.121 18.7,21.354 28.1,25.946 9.47,4.625 18.45,6.97 26.7,7.019 h 0.18 c 19.11,0 38.05,-12.956 47.18,-32.309 8.15,-17.27 8.9,-38.656 2.1,-60.239 -3.06,-9.742 -6.83,-16.598 -11.82,-21.567 -7.26,-7.233 -16.99,-10.103 -23.87,-11.251 -10.53,-1.738 -21.42,-0.787 -31.49,2.755 -12.09,4.265 -23.6,12.514 -33.28,23.88 -13.45,15.793 -20.47,34.769 -19.25,52.039 0.69,9.66 3.91,19.615 9.37,28.799 11.75,19.796 32.71,33.425 54.7,35.557 22.77,2.214 45.86,-8.037 58.82,-26.126 8.13,-11.35 12.78,-26.389 13.09,-42.347 0.26,-13.825 -2.45,-28.406 -8.28,-44.577 -4.8,-13.268 -10.14,-22.714 -16.82,-29.734 -8.33,-8.741 -19.32,-13.596 -29.4,-12.989 -1.33,0.082 -2.51,-0.951 -2.6,-2.313 -0.08,-1.361 0.95,-2.525 2.3,-2.607 11.48,-0.689 23.93,4.723 33.23,14.498 7.17,7.528 12.86,17.532 17.9,31.456 6.05,16.745 8.85,31.916 8.57,46.348 -0.32,17.188 -5.18,32.802 -14.01,45.118 -12.7,17.713 -34.41,28.455 -56.66,28.455 z"
     fill="#f9c0b3"
     id="path1" />
  <path
     d="m 181.81845,194.50558 c 17.0034,-17.0034 26.0893,-35.4855 20.2939,-41.28081 -5.7954,-5.79542 -24.2774,3.29051 -41.2809,20.29391 -17.0034,17.0035 -26.08932,35.4855 -20.2939,41.2809 5.7953,5.7954 24.2774,-3.2905 41.2809,-20.294 z"
     fill="#9cf0e1"
     id="path2" />
  <path
     d="m 237.51205,216.57808 c 17.003,-17.0034 25.443,-36.1313 18.851,-42.7234 -6.592,-6.592 -25.72,1.8481 -42.723,18.8515 -17.0034,17.0034 -25.4435,36.1313 -18.8514,42.7234 6.592,6.592 25.7199,-1.848 42.7234,-18.8515 z"
     fill="#9cf0e1"
     id="path3" />
  <path
     d="m 200.05395,212.75558 c 21.5804,-21.5804 34.3771,-43.7728 28.5812,-49.5681 -5.7953,-5.7954 -27.9878,7.0008 -49.5681,28.5812 -21.5804,21.5804 -34.3767,43.7728 -28.5813,49.5682 5.7954,5.7954 27.9878,-7.0009 49.5682,-28.5813 z"
     fill="#9cf0e1"
     id="path4" />
  <path
     d="m 244.02305,188.17808 -33.23,33.61"
     stroke="#42887e"
     stroke-linecap="round"
     stroke-linejoin="round"
     id="path5" />
  <path
     d="m 772.96845,157.12745 4.895,31.2438 19.86,-24.6106 -11.383,29.5052 29.506,-11.383 -24.611,19.8608 31.244,4.8947 -31.244,4.8946 24.611,19.8611 -29.506,-11.3833 11.383,29.5053 -19.86,-24.6107 -4.895,31.2437 -4.895,-31.2437 -19.861,24.6107 11.383,-29.5053 -29.505,11.3833 24.611,-19.8611 -31.244,-4.8946 31.244,-4.8947 -24.611,-19.8608 29.505,11.383 -11.383,-29.5052 19.861,24.6106 z"
     fill="#f137a6"
     id="path6" />
</svg>
