<svg width="1611" height="639" viewBox="0 0 1611 639" fill="none" xmlns="http://www.w3.org/2000/svg">
<path d="M81.4818 49.7602C65.4911 45.4755 49.0469 54.9638 44.7603 70.9613C40.4738 86.9588 49.964 103.396 65.9615 107.683C81.959 111.969 98.3965 102.479 102.683 86.4817C106.97 70.4842 97.4793 54.0467 81.4818 49.7602ZM70.7791 89.7033C64.7118 88.0776 61.1091 81.8377 62.7349 75.7704C64.3606 69.703 70.6005 66.1004 76.6679 67.7262C82.7352 69.3519 86.3378 75.5918 84.712 81.6591C83.0863 87.7265 76.8464 91.3291 70.7791 89.7033Z" fill="#F391B9"/>
<path d="M47.8094 1.7364C27.7464 -3.63947 7.11439 8.26527 1.73625 28.3368C-3.64189 48.4082 8.26511 69.0318 28.3366 74.4099C48.4081 79.788 69.0316 67.881 74.4097 47.8096C79.7879 27.7381 67.8809 7.11454 47.8094 1.7364ZM34.3811 51.8517C26.7686 49.8119 22.2485 41.9829 24.2883 34.3705C26.328 26.758 34.157 22.238 41.7695 24.2777C49.3819 26.3175 53.902 34.1465 51.8622 41.7589C49.8225 49.3714 41.9935 53.8914 34.3811 51.8517Z" fill="#FF4632"/>
<path d="M1837.17 437.933C1831.67 432.783 1822.12 432.663 1809.98 436.713C1828.46 406.343 1835.74 383.253 1827.25 375.293C1820.17 368.663 1803.32 373.663 1781.06 387.333C1781.35 381.253 1779.99 376.533 1776.79 373.533C1772.22 369.253 1764.41 368.943 1754.34 371.983C1782.74 328.703 1795 295.013 1783.43 284.173C1775.44 276.693 1757.32 281.263 1733.28 295.063C1734.15 285.773 1732.39 278.593 1727.67 274.173C1718.14 265.253 1698.19 269.093 1672.92 282.673C1678.79 265.473 1678.87 252.333 1671.87 245.783C1663.11 237.583 1644.8 241.103 1621.66 253.553C1636.92 229.583 1643.46 212.113 1637.69 206.713C1625.97 195.743 1567.98 238.623 1508.17 302.493C1448.35 366.383 1409.36 427.053 1421.08 438.023C1426.07 442.693 1439.47 437.593 1457.82 425.253C1444.23 452.363 1440.61 473.583 1450.16 482.523C1457.16 489.073 1470.26 488.143 1487.04 481.153C1475.14 507.263 1472.62 527.422 1482.15 536.342C1486.87 540.762 1494.15 542.043 1503.36 540.573C1491.16 565.473 1487.79 583.853 1495.78 591.333C1507.35 602.173 1540.17 587.723 1581.5 556.553C1579.12 566.793 1579.95 574.573 1584.51 578.853C1587.71 581.853 1592.51 582.903 1598.56 582.213C1586.37 605.323 1582.49 622.462 1589.57 629.092C1598.28 637.242 1621.78 627.803 1651.96 606.253C1649.04 618.093 1649.9 627.213 1655.23 632.213C1671.95 647.873 1726.23 617.073 1776.48 563.423C1826.73 509.773 1853.9 453.583 1837.18 437.933H1837.17Z" stroke="#F391B9" stroke-width="4" stroke-linecap="round" stroke-linejoin="round"/>
<path d="M1544.99 287.81L1543.33 289.47C1537.9 284.04 1529.09 284.04 1523.66 289.47L1522 287.81C1527.84 281.97 1527.84 272.5 1522 266.66L1523.66 265C1529.09 270.43 1537.9 270.43 1543.33 265L1544.99 266.66C1539.15 272.5 1539.15 281.97 1544.99 287.81Z" fill="#FF4632"/>
</svg>
