<svg width="320" height="116" viewBox="0 0 320 116" fill="none" xmlns="http://www.w3.org/2000/svg">
<path d="M319.551 53.2491C318.831 52.4091 317.945 51.7557 317.002 51.1584C314.346 49.4877 311.496 48.1436 308.724 46.6689C299.376 41.7035 289.59 37.5781 279.969 33.1447C273.199 30.0273 266.166 27.4979 259.376 24.4272C253.345 21.7018 247.207 19.2377 240.884 17.2124C229.133 13.4696 217.062 10.9309 204.931 8.65356C190.681 5.98417 176.294 4.22012 161.858 2.77343C153.162 1.90541 144.475 0.981399 135.749 0.50539C124.641 -0.101288 113.522 -0.0826257 102.404 0.150712C85.0108 0.514719 67.7056 1.81209 50.4685 4.0988C40.5075 5.42416 30.6925 7.30953 21.1109 10.2589C17.8425 11.2669 14.681 12.4336 12.541 15.2337C12.1227 15.7843 12.0157 16.4004 12.7744 16.6244C14.8367 17.2311 16.8114 18.0617 19.0098 18.2951C22.4922 18.6497 25.9163 18.2391 29.3112 17.763C36.4414 16.7644 43.5425 15.551 50.6922 14.7017C58.1241 13.815 65.5461 12.807 73.0071 12.1163C79.0381 11.5563 85.0789 11.1923 91.1197 10.8283C102.657 10.1376 114.213 9.96958 125.769 10.0536C126.178 10.0536 126.654 9.90425 127.063 10.3523C126.645 10.3896 126.304 10.4363 125.964 10.4549C118.308 10.8469 110.691 11.5563 103.085 12.4616C91.4115 13.8523 79.8747 15.943 68.4255 18.5004C63.8924 19.5084 59.3886 20.6284 54.9529 21.9725C54.7194 21.9911 54.4762 21.9818 54.2525 22.0472C50.4393 23.0925 46.6553 24.2685 42.9783 25.6872C33.1827 29.4673 23.6692 33.798 15.1577 39.8835C13.7666 40.8728 12.1519 41.6195 11.111 43.0382C7.27841 45.9596 4.0197 49.3943 1.55864 53.4544C0.109242 55.8345 -0.279862 58.5038 0.187058 61.2386C0.605341 63.7306 1.97693 65.84 3.38741 67.8934C5.93602 71.6174 9.17526 74.7722 12.7063 77.6376C18.0176 81.9403 23.7568 85.6457 29.8462 88.8565C31.1886 89.9111 32.7742 90.5738 34.2819 91.3485C46.5872 97.6673 59.2816 103.09 72.6958 106.889C79.5926 108.839 86.6159 110.286 93.678 111.481C99.3589 112.442 105.098 113.077 110.828 113.73C122.559 115.065 134.32 115.765 146.119 115.905C156.985 116.026 167.86 116.092 178.735 115.718C188.716 115.382 198.686 114.794 208.618 113.796C219.202 112.722 229.63 110.818 239.999 108.597C250.339 106.375 260.563 103.734 270.65 100.626C278.831 98.1059 286.954 95.4366 294.745 91.9365C296.954 90.9471 299.162 89.9298 301.039 88.3898C302.907 87.4004 304.541 86.1217 306.058 84.6937C308.189 83.107 310.251 81.3616 311.477 79.0749C313.763 74.8188 314.375 70.3481 312.44 65.7093C309.813 59.4372 305.446 54.3597 300.631 49.5903C297.956 46.9489 294.979 44.6249 292.031 42.2355C292.625 42.3662 293.17 42.5715 293.714 42.7862C296.214 43.8036 298.714 44.8209 301.214 45.8476C301.35 45.9316 301.477 46.0249 301.623 46.0809C306.195 48.0783 310.66 50.2437 315.047 52.5957C316.233 53.2304 317.265 54.1078 318.558 54.5931C319.103 54.7984 319.512 54.7331 319.842 54.3411C320.222 53.8837 319.833 53.5664 319.551 53.2491ZM22.6673 75.7429C19.4961 73.0455 16.6071 70.1241 14.3406 66.68C13.5234 65.4386 12.7939 64.1226 12.4048 62.7132C11.5682 59.6705 12.3756 56.8798 14.3892 54.4811C16.8503 51.541 20.0603 49.385 23.2801 47.2756C24.6031 46.4076 25.9357 45.5489 27.2587 44.6902C27.4046 44.6436 27.57 44.6249 27.7062 44.5502C33.1049 41.3302 38.815 38.7075 44.6417 36.2901C53.1728 32.7433 62.0442 30.1953 71.0227 27.9833C77.4331 26.3966 83.8825 25.0245 90.3902 23.8672C96.4601 22.7845 102.54 21.7765 108.649 20.9271C113.96 20.1898 119.3 19.6111 124.641 19.1164C132.238 18.4071 139.845 18.0991 147.461 17.9684C153.434 17.8657 159.416 17.9591 165.399 17.9871C173.103 18.0244 180.817 18.1831 188.492 18.8457C197.801 19.6484 207.12 20.4324 216.39 21.6551C222.198 22.4205 228.015 23.1018 233.744 24.2685C243.696 26.2939 253.053 29.9433 262.129 34.2927C264.736 35.5434 267.294 36.9061 269.872 38.2221C273.413 40.4062 276.944 42.5995 280.203 45.1756C287.08 50.617 293.092 56.7491 297.236 64.4119C298.734 67.1747 299.599 70.0027 298.967 73.1761C298.52 75.4162 297.187 77.0029 295.426 78.3469C291.487 81.3429 286.993 83.359 282.372 85.179C270.271 89.9485 257.791 93.5418 245.155 96.6966C237.042 98.7219 228.851 100.449 220.602 101.942C211.488 103.585 202.286 104.583 193.044 105.311C178.191 106.487 163.307 106.861 148.415 106.898C139.66 106.917 130.905 106.683 122.18 106.179C115.458 105.797 108.765 104.966 102.073 104.285C94.573 103.519 87.1314 102.334 79.7385 100.869C71.2367 99.1886 62.9489 96.7899 54.8848 93.6725C48.9218 91.3671 43.0756 88.8284 37.4725 85.8044C32.1808 82.9576 27.2392 79.5976 22.677 75.7242L22.6673 75.7429Z" fill="#F9C0B3" style="mix-blend-mode:multiply"/>
</svg>
