<svg width="263" height="95" viewBox="0 0 263 95" fill="none" xmlns="http://www.w3.org/2000/svg">
<path d="M262.631 43.6092C262.039 42.9212 261.311 42.3862 260.536 41.8969C258.353 40.5287 256.011 39.428 253.732 38.2202C246.049 34.1537 238.007 30.7752 230.1 27.1444C224.535 24.5913 218.755 22.5198 213.175 20.005C208.218 17.773 203.173 15.755 197.977 14.0963C188.319 11.0312 178.398 8.95206 168.428 7.08696C156.716 4.90083 144.891 3.45613 133.027 2.27134C125.88 1.56047 118.74 0.803732 111.569 0.413897C102.439 -0.0829515 93.301 -0.0676676 84.163 0.123428C69.8683 0.421537 55.6456 1.48404 41.4788 3.35677C33.2921 4.4422 25.2254 5.98625 17.3505 8.4017C14.6643 9.22724 12.066 10.1827 10.3071 12.4759C9.96335 12.9268 9.8754 13.4313 10.499 13.6148C12.1939 14.1116 13.8168 14.7919 15.6237 14.983C18.4858 15.2735 21.3 14.9372 24.0901 14.5473C29.9503 13.7294 35.7865 12.7357 41.6627 12.0401C47.7707 11.314 53.8707 10.4885 60.0027 9.92282C64.9595 9.46419 69.9243 9.16607 74.889 8.86797C84.3708 8.30232 93.8686 8.16474 103.366 8.23354C103.702 8.23354 104.094 8.11124 104.43 8.47815C104.086 8.50872 103.806 8.54693 103.526 8.56222C97.2345 8.88326 90.9745 9.46418 84.7226 10.2056C75.1289 11.3446 65.647 13.0568 56.2372 15.1512C52.5116 15.9767 48.81 16.894 45.1644 17.9947C44.9725 18.01 44.7726 18.0024 44.5888 18.0559C41.4548 18.912 38.3448 19.8751 35.3228 21.0369C27.2721 24.1327 19.4531 27.6794 12.4577 32.6632C11.3144 33.4734 9.98734 34.0849 9.13189 35.2468C5.98195 37.6393 3.30369 40.4523 1.28101 43.7773C0.0897831 45.7265 -0.230011 47.9126 0.153738 50.1523C0.497514 52.1932 1.62479 53.9207 2.78403 55.6023C4.87866 58.6522 7.54092 61.2358 10.443 63.5825C14.8082 67.1063 19.5251 70.1409 24.5298 72.7704C25.6331 73.6341 26.9363 74.1768 28.1755 74.8113C38.2889 79.9861 48.7221 84.4272 59.7469 87.5382C65.4152 89.1358 71.1874 90.3206 76.9916 91.299C81.6606 92.0863 86.3775 92.6061 91.0864 93.1411C100.728 94.2342 110.394 94.8075 120.092 94.9222C129.022 95.0215 137.96 95.075 146.898 94.7693C155.101 94.4941 163.295 94.0125 171.458 93.1946C180.156 92.3156 188.727 90.7563 197.249 88.937C205.748 87.1178 214.15 84.9546 222.441 82.4092C229.164 80.3454 235.84 78.1593 242.244 75.2928C244.059 74.4826 245.874 73.6494 247.417 72.3882C248.952 71.5779 250.295 70.5307 251.542 69.3612C253.293 68.0618 254.988 66.6323 255.995 64.7596C257.874 61.274 258.377 57.6127 256.786 53.8137C254.628 48.677 251.038 44.5188 247.081 40.6128C244.882 38.4496 242.436 36.5462 240.013 34.5894C240.501 34.6964 240.949 34.8646 241.396 35.0404C243.451 35.8736 245.506 36.7068 247.56 37.5476C247.672 37.6164 247.776 37.6928 247.896 37.7387C251.654 39.3745 255.323 41.1478 258.929 43.0741C259.904 43.5939 260.752 44.3124 261.815 44.7099C262.263 44.878 262.599 44.8245 262.87 44.5035C263.182 44.1289 262.862 43.869 262.631 43.6092ZM18.6297 62.0308C16.0234 59.8217 13.6489 57.4292 11.7861 54.6086C11.1146 53.592 10.515 52.5142 10.1952 51.36C9.50764 48.8681 10.1712 46.5826 11.8261 44.6181C13.8488 42.2103 16.4871 40.4446 19.1334 38.7171C20.2206 38.0062 21.3159 37.303 22.4032 36.5998C22.5231 36.5615 22.6591 36.5463 22.771 36.4851C27.2081 33.848 31.9011 31.7001 36.6899 29.7203C43.7014 26.8157 50.9926 24.7289 58.3718 22.9173C63.6404 21.6179 68.9409 20.4942 74.2894 19.5464C79.2782 18.6597 84.2749 17.8342 89.2956 17.1386C93.6608 16.5347 98.0499 16.0608 102.439 15.6557C108.683 15.0748 114.935 14.8225 121.195 14.7155C126.104 14.6314 131.02 14.7079 135.937 14.7308C142.269 14.7614 148.609 14.8913 154.917 15.434C162.568 16.0914 170.227 16.7335 177.846 17.7348C182.619 18.3616 187.4 18.9196 192.109 19.8751C200.287 21.5338 207.978 24.5225 215.437 28.0846C217.58 29.1088 219.683 30.2248 221.801 31.3026C224.711 33.0913 227.613 34.8876 230.292 36.9973C235.944 41.4536 240.885 46.4756 244.291 52.7512C245.522 55.0137 246.233 57.3298 245.714 59.9287C245.346 61.7632 244.251 63.0627 242.804 64.1634C239.566 66.6171 235.872 68.2682 232.075 69.7587C222.129 73.6647 211.872 76.6075 201.486 79.1912C194.819 80.8499 188.087 82.264 181.308 83.487C173.817 84.8323 166.253 85.6502 158.658 86.2464C146.45 87.2095 134.218 87.5153 121.978 87.5459C114.783 87.5611 107.588 87.3701 100.416 86.9573C94.892 86.6439 89.3915 85.9636 83.8911 85.4056C77.7272 84.7788 71.6112 83.8081 65.5351 82.608C58.5477 81.2321 51.7361 79.2676 45.1084 76.7146C40.2076 74.8265 35.4027 72.7474 30.7977 70.2708C26.4486 67.9395 22.3872 65.1877 18.6377 62.0155L18.6297 62.0308Z" fill="#4100F5" style="mix-blend-mode:multiply"/>
</svg>
