<svg width="146" height="166" viewBox="0 0 146 166" fill="none" xmlns="http://www.w3.org/2000/svg">
<path d="M75.2154 166C73.0151 166 70.8149 165.902 68.6147 165.688C45.0967 163.409 22.7195 148.878 10.1863 127.754C4.35164 117.913 0.880157 107.204 0.146747 96.7895C-1.15709 78.2404 6.27483 57.9692 20.5519 41.1913C30.787 29.1697 43.0105 20.4118 55.9348 15.8689C66.773 12.0475 78.4913 11.0306 89.8347 12.9003C100.722 14.7044 109.898 19.067 116.368 25.496C121.958 31.0558 126.098 38.5509 129.406 49.0801C136.561 71.8441 135.73 94.5098 127.059 112.911C117.134 133.937 96.4191 148.025 75.4598 148.025C75.3946 148.025 75.3294 148.025 75.2642 148.025C66.284 147.992 56.5868 145.466 46.4657 140.513C36.3609 135.577 22.8825 126.671 16.0699 112.255C11.1805 101.874 10.1374 89.2615 13.1363 76.7643C15.695 66.1367 21.0897 55.5255 29.2061 45.2423C34.8126 38.1244 40.4354 32.7615 46.4331 28.8253C59.83 20.0346 76.9756 17.5745 92.2957 22.2487C99.9557 24.594 106.279 28.4973 110.566 33.5323C115.292 39.0921 117.721 46.046 119.644 52.7538C121.925 60.7081 124.109 70.1384 123.034 79.7984C122.007 89.0319 118.03 98.4459 110.859 108.581C104.65 117.372 98.2281 123.621 91.2037 127.688C74.1723 137.578 51.2247 134.855 36.6543 121.226C22.4913 107.991 17.6508 85.1778 25.1479 66.9731C32.5309 49.0144 51.3877 36.1892 70.9779 35.7792C77.9534 35.6316 84.4726 37.0092 89.851 39.7317C101.863 45.8163 109.669 59.6912 109.262 74.255C108.903 87.2279 102.156 100.529 91.2363 109.844C86.4121 113.961 81.7346 116.552 76.9267 117.782C68.5658 119.914 59.0641 117.831 51.5181 112.19C44.6892 107.089 39.7835 99.3644 38.0559 91C36.8825 85.3254 37.0455 79.1424 38.5286 72.6313C40.4191 64.3654 44.1351 58.0676 49.3015 54.4103C57.3039 48.7357 67.9139 49.6705 76.2585 51.1137C80.5285 51.8518 85.4505 52.8686 89.6065 55.5583C96.8428 60.2325 100.673 69.5972 98.929 78.3551C97.2666 86.6866 90.8125 93.8538 82.5006 96.6419C73.7974 99.5448 63.7905 97.1174 58.1513 90.7212C51.9092 83.6361 51.8603 72.1721 58.0536 65.7103C61.0198 62.6106 65.3225 60.5769 70.163 59.9701C75.3783 59.3304 80.2189 60.5933 83.4296 63.447C86.4121 66.0875 87.8626 70.3025 87.3248 74.6978C86.7707 79.0932 84.3423 82.8161 80.8056 84.6366C77.3993 86.3915 73.4389 86.3751 70.4564 84.5874C66.9034 82.4553 65.2899 77.9616 66.7567 74.337C67.5879 72.3197 69.4133 70.7453 71.6461 70.1548C73.7322 69.5972 75.8347 69.9744 77.4156 71.2045C78.4913 72.0409 78.6868 73.5826 77.8556 74.6486C77.0244 75.7311 75.4925 75.9279 74.4331 75.0914C73.9278 74.6978 73.2107 74.829 72.9173 74.911C72.1676 75.1079 71.532 75.6327 71.2875 76.2231C70.7334 77.5679 71.5157 79.5196 72.95 80.3888C74.482 81.2909 76.6822 81.2581 78.5727 80.2905C80.6752 79.208 82.1257 76.8955 82.468 74.1238C82.8102 71.3357 81.9627 68.7444 80.2025 67.17C78.0349 65.2511 74.5961 64.4146 70.766 64.8903C67.0338 65.3495 63.7742 66.8747 61.5902 69.1544C57.1735 73.763 57.2876 82.3405 61.8347 87.4903C66.2189 92.4597 74.0908 94.3129 80.9849 92.0005C87.5693 89.8028 92.8661 83.9314 94.1699 77.4039C95.5064 70.6961 92.4913 63.2502 87.0151 59.7077C83.6252 57.51 79.4528 56.6571 75.4761 55.9683C68.0605 54.6891 58.7055 53.8034 52.17 58.4284C46.9057 62.1513 44.4773 68.81 43.3528 73.7302C42.0326 79.5524 41.8697 85.0302 42.8964 89.9996C44.3796 97.1994 48.6007 103.842 54.4843 108.237C60.8568 113.01 68.8265 114.781 75.7858 113.01C79.8603 111.976 83.9022 109.697 88.1397 106.089C98.0326 97.6587 104.112 85.7026 104.438 74.1074C104.796 61.4133 98.0652 49.3589 87.716 44.1107C83.0384 41.749 77.3178 40.5845 71.1409 40.6829C53.4249 41.0437 36.4098 52.6226 29.7276 68.8264C22.9965 85.2106 27.3318 105.711 40.0443 117.602C52.8871 129.607 73.8626 132.1 88.8242 123.408C95.213 119.701 101.146 113.912 106.931 105.711C113.613 96.281 117.297 87.6051 118.242 79.2244C119.22 70.4172 117.15 61.5774 115.015 54.0987C113.239 47.932 111.038 41.5686 106.915 36.714C103.232 32.3843 97.7066 29.0057 90.9429 26.9393C77.0081 22.6751 61.3947 24.922 49.1712 32.9255C43.6299 36.5664 38.3819 41.585 33.1013 48.2764C25.4413 58.002 20.34 67.9736 17.9605 77.8959C15.2224 89.3107 16.1351 100.758 20.5519 110.123C26.7451 123.244 39.2457 131.477 48.6496 136.069C58.1188 140.694 67.099 143.039 75.3458 143.088H75.525C94.6426 143.088 113.581 130.132 122.708 110.779C130.857 93.5093 131.606 72.1229 124.81 50.5397C121.746 40.7978 117.981 33.9423 112.994 28.9729C105.725 21.7403 95.9953 18.8701 89.1176 17.7221C78.589 15.9836 67.702 16.9349 57.6298 20.4774C45.5367 24.7416 34.0303 32.9911 24.3493 44.3567C10.9034 60.1505 3.879 79.126 5.10135 96.3958C5.78587 106.056 9.01288 116.011 14.4727 125.195C26.2236 144.991 47.1828 158.62 69.1688 160.752C91.9371 162.966 115.031 152.715 127.988 134.626C136.121 123.276 140.766 108.237 141.076 92.2793C141.336 78.4536 138.631 63.8734 132.796 47.7024C128.005 34.4343 122.659 24.9876 115.977 17.9681C107.648 9.22661 96.6635 4.372 86.5751 4.97883C85.2549 5.06083 84.0652 4.02759 83.9837 2.66634C83.9022 1.30508 84.929 0.140648 86.2817 0.0586446C97.7555 -0.630181 110.207 4.78201 119.513 14.5568C126.685 22.0847 132.372 32.089 137.409 46.0131C143.455 62.7582 146.258 77.9287 145.981 92.3613C145.655 109.549 140.799 125.163 131.965 137.479C119.269 155.192 97.5599 165.934 75.3131 165.934L75.2154 166Z" fill="#F9C0B3"/>
</svg>
