<?xml version="1.0" encoding="UTF-8" standalone="no"?>
<svg
   width="269.7"
   height="65.339"
   viewBox="0 0 269.7 65.339"
   version="1.1"
   id="svg4"
   sodipodi:docname="enter-co.svg"
   inkscape:version="1.3.2 (091e20e, 2023-11-25)"
   xmlns:inkscape="http://www.inkscape.org/namespaces/inkscape"
   xmlns:sodipodi="http://sodipodi.sourceforge.net/DTD/sodipodi-0.dtd"
   xmlns:xlink="http://www.w3.org/1999/xlink"
   xmlns="http://www.w3.org/2000/svg"
   xmlns:svg="http://www.w3.org/2000/svg">
  <sodipodi:namedview
     id="namedview4"
     pagecolor="#ffffff"
     bordercolor="#000000"
     borderopacity="0.25"
     inkscape:showpageshadow="2"
     inkscape:pageopacity="0.0"
     inkscape:pagecheckerboard="0"
     inkscape:deskcolor="#d1d1d1"
     inkscape:zoom="2.7437893"
     inkscape:cx="134.85001"
     inkscape:cy="32.619123"
     inkscape:window-width="1392"
     inkscape:window-height="926"
     inkscape:window-x="0"
     inkscape:window-y="25"
     inkscape:window-maximized="0"
     inkscape:current-layer="svg4" />
  <defs
     id="defs1">
    <path
       id="a"
       d="M0 0h269.7v65.339H0z" />
  </defs>
  <clipPath
     id="b">
    <use
       xlink:href="#a"
       overflow="visible"
       id="use1" />
  </clipPath>
  <path
     clip-path="url(#b)"
     fill="#A9ABA9"
     d="M224.167 40.686c-1.428 6.789-6.532 10.463-12.763 10.463-5.715 0-9.647-3.367-11.383-6.533-1.176-2.145-1.582-3.215-1.582-11.946 0-8.728.406-9.8 1.582-11.946 1.735-3.165 5.668-6.532 11.383-6.532 6.893 0 11.64 4.848 12.763 10.77h-5.819c-.866-2.808-3.47-5.258-6.943-5.258-2.601 0-4.49 1.224-5.614 2.656-1.431 1.836-1.839 2.858-1.839 10.31 0 7.455.408 8.475 1.839 10.313 1.124 1.429 3.014 2.654 5.614 2.654 3.064 0 5.412-1.684 6.943-4.951h5.819zm5.796-19.962c1.736-3.165 5.665-6.532 11.386-6.532 5.718 0 9.649 3.367 11.383 6.532 1.175 2.146 1.582 3.218 1.582 11.946 0 8.731-.407 9.801-1.582 11.946-1.733 3.166-5.665 6.533-11.383 6.533-5.721 0-9.649-3.367-11.386-6.533-1.174-2.145-1.581-3.215-1.581-11.946 0-8.729.407-9.8 1.581-11.946m5.769 22.258c1.124 1.429 3.011 2.654 5.616 2.654 2.603 0 4.491-1.226 5.615-2.654 1.432-1.838 1.839-2.859 1.839-10.313 0-7.452-.407-8.474-1.839-10.31-1.124-1.432-3.013-2.656-5.615-2.656-2.605 0-4.492 1.224-5.616 2.656-1.428 1.836-1.836 2.858-1.836 10.31 0 7.454.409 8.476 1.836 10.313"
     id="path1"
     style="fill:#ffffff" />
  <path
     clip-path="url(#b)"
     fill="#EFEDE1"
     d="M34.407 9.285h6.701l19.288 33.237h.131V9.285h7.094v46.77h-6.699L41.633 22.816h-.131v33.239h-7.095zm50.081 6.307H72.609V9.285h30.851v6.307H91.583v40.463h-7.095zm58.545-6.307h16.398c3.941 0 7.029.918 9.525 3.086 2.629 2.233 4.663 5.782 4.663 9.985 0 6.043-3.415 10.969-9.063 12.94l10.837 20.758h-8.407l-9.656-19.969h-7.202v19.969h-7.095V9.285zm7.095 20.494h8.843c5.322 0 7.949-3.482 7.949-7.423 0-2.431-.92-4.27-2.363-5.319-1.316-.987-2.761-1.446-5.19-1.446h-9.238v14.188zM28.025 15.983V9.285H2.868v.005a2.913 2.913 0 0 0-2.855 2.772H0v41.067a2.922 2.922 0 0 0 2.923 2.925c.011 0 .02-.004.033-.004v.004h25.069v-6.699H7.094v-13.73h17.579v-6.307H7.094V15.983h20.931zm108.752 0V9.285h-25.159v.005a2.913 2.913 0 0 0-2.854 2.772h-.014v41.066h.001l-.001.001a2.923 2.923 0 0 0 2.924 2.925c.01 0 .021-.004.032-.004v.004h25.071v-6.699h-20.932v-13.73h17.579v-6.307h-17.579V15.983h20.932z"
     id="path2"
     style="fill:#ffffff" />
  <path
     clip-path="url(#b)"
     fill="#545456"
     d="M254.895 65.339h-57.15a14.705 14.705 0 0 1-10.391-4.259 2.55 2.55 0 1 1 3.582-3.634 9.644 9.644 0 0 0 6.809 2.788h57.15c5.348 0 9.699-4.35 9.699-9.698V14.804c0-5.348-4.352-9.698-9.699-9.698h-57.15c-5.349 0-9.7 4.35-9.7 9.698v14.882a2.553 2.553 0 1 1-5.105 0V14.804C182.939 6.641 189.581 0 197.744 0h57.15c8.164 0 14.806 6.641 14.806 14.804v35.731c0 8.163-6.641 14.804-14.805 14.804"
     id="path3"
     style="fill:#ffffff" />
  <path
     clip-path="url(#b)"
     fill="#E13E25"
     d="M191.681 44.961a6.19 6.19 0 0 1-12.377 0 6.19 6.19 0 0 1 12.377 0"
     id="path4"
     style="fill:#ffffff" />
</svg>
