<?xml version="1.0" encoding="UTF-8" standalone="no"?>
<svg
   version="1.0"
   width="455.88025pt"
   height="78.647728pt"
   viewBox="0 0 455.88025 78.647728"
   preserveAspectRatio="xMidYMid"
   id="svg25"
   xmlns="http://www.w3.org/2000/svg"
   xmlns:svg="http://www.w3.org/2000/svg">
  <defs
     id="defs25" />
  <g
     transform="matrix(0.1,0,0,-0.1,-0.2576403,80.95)"
     fill="#000000"
     stroke="none"
     id="g25"
     style="fill:#ffffff">
    <path
       d="m 2710,808 c -1,-2 -2,-146 -3,-321 l -2,-317 h 85 85 l -1,317 -2,318 -81,3 c -44,2 -81,2 -81,0 z"
       id="path1"
       style="fill:#ffffff" />
    <path
       d="m 318,791 c -75,-8 -113,-42 -113,-101 0,-48 26,-80 48,-61 10,8 13,24 10,50 -6,47 2,53 84,62 38,4 71,14 87,26 42,33 18,38 -116,24 z"
       id="path2"
       style="fill:#ffffff" />
    <path
       d="m 464,771 c -53,-23 -87,-111 -44,-111 13,0 24,10 30,24 5,14 19,30 30,36 19,10 30,6 82,-29 41,-28 72,-41 95,-41 18,0 33,2 33,5 0,2 -33,29 -73,60 -76,56 -116,71 -153,56 z"
       id="path3"
       style="fill:#ffffff" />
    <path
       d="M 126,691 C 46,613 34,585 55,533 c 14,-32 68,-69 85,-58 16,10 11,45 -7,52 -46,17 -43,57 9,110 37,37 74,110 63,121 -2,3 -38,-28 -79,-67 z"
       id="path4"
       style="fill:#ffffff" />
    <path
       d="m 288,719 c -13,-7 -15,-18 -11,-45 5,-31 1,-40 -30,-72 -27,-28 -35,-43 -31,-60 4,-12 9,-22 13,-22 4,0 29,23 56,50 43,43 50,56 50,90 0,47 -22,74 -47,59 z"
       id="path5"
       style="fill:#ffffff" />
    <path
       d="m 474,688 c -9,-31 -22,-38 -71,-38 -32,0 -46,-5 -57,-22 -9,-12 -16,-26 -16,-31 0,-14 130,3 156,19 25,17 49,68 39,83 -11,19 -43,12 -51,-11 z"
       id="path6"
       style="fill:#ffffff" />
    <path
       d="m 1745,651 c -121,-32 -185,-120 -185,-255 0,-108 59,-199 149,-231 51,-18 154,-20 202,-4 62,21 139,95 139,134 0,6 -31,19 -70,29 l -70,18 -26,-31 c -22,-27 -32,-31 -74,-31 -41,0 -52,4 -69,26 -12,15 -21,31 -21,35 0,5 77,9 171,9 h 172 l -6,58 c -14,121 -49,182 -130,224 -44,22 -134,32 -182,19 z m 108,-132 c 22,-12 37,-28 37,-41 0,-5 -36,-8 -80,-8 -63,0 -80,3 -80,14 0,37 77,59 123,35 z"
       id="path7"
       style="fill:#ffffff" />
    <path
       d="m 3127,649 c -57,-13 -91,-34 -129,-79 -101,-117 -67,-324 65,-392 57,-29 157,-35 228,-14 127,36 194,170 159,317 -18,72 -84,141 -159,163 -60,17 -105,19 -164,5 z m 132,-147 c 34,-33 46,-88 31,-142 -15,-57 -41,-80 -90,-80 -50,0 -86,31 -96,84 -11,59 2,108 36,139 40,36 83,36 119,-1 z"
       id="path8"
       style="fill:#ffffff" />
    <path
       d="m 4257,650 c -118,-30 -172,-111 -134,-203 21,-49 62,-72 175,-98 59,-13 96,-27 99,-36 8,-21 -15,-33 -64,-33 -33,0 -46,5 -62,26 -21,26 -23,27 -98,20 -43,-4 -79,-9 -81,-11 -10,-9 21,-74 46,-97 53,-50 90,-62 192,-62 83,-1 102,2 144,24 77,40 109,127 72,199 -22,41 -54,58 -168,89 -72,19 -103,32 -103,42 0,11 14,16 48,18 42,3 49,0 54,-18 5,-20 10,-21 72,-15 99,10 102,11 90,43 -14,37 -58,82 -94,98 -42,17 -142,25 -188,14 z"
       id="path9"
       style="fill:#ffffff" />
    <path
       d="m 1115,638 c -48,-17 -94,-56 -116,-99 -42,-82 -34,-199 17,-267 52,-67 167,-98 254,-68 24,8 46,13 49,11 2,-3 -1,-16 -7,-29 -7,-16 -25,-29 -49,-35 -54,-15 -64,-14 -118,13 -53,27 -53,27 -128,-22 l -38,-25 22,-23 c 52,-55 180,-84 289,-64 86,15 144,50 172,103 22,39 23,56 26,275 l 4,232 h -80 c -47,0 -82,-4 -84,-10 -2,-7 -16,-5 -40,5 -42,17 -128,19 -173,3 z m 183,-143 c 32,-38 31,-117 -3,-150 -32,-33 -98,-35 -132,-3 -19,18 -23,32 -23,77 1,57 10,79 45,99 30,18 87,7 113,-23 z"
       id="path10"
       style="fill:#ffffff" />
    <path
       d="m 2338,627 c -45,-23 -48,-23 -48,-6 0,17 -9,19 -82,19 h -83 V 405 170 h 85 85 l -3,129 c -2,84 0,137 8,151 14,26 68,60 97,60 47,0 53,-20 53,-186 V 170 h 87 86 l -7,186 c -7,204 -13,226 -68,266 -50,35 -148,37 -210,5 z"
       id="path11"
       style="fill:#ffffff" />
    <path
       d="m 3645,638 c -49,-18 -83,-47 -112,-96 -24,-40 -28,-58 -28,-123 0,-67 4,-82 31,-125 53,-87 162,-123 269,-90 27,8 50,14 52,13 1,-2 -3,-14 -10,-27 -18,-36 -82,-55 -137,-40 -22,6 -49,19 -58,28 -16,17 -20,16 -80,-21 -61,-39 -62,-40 -45,-59 51,-57 185,-89 289,-69 120,22 172,63 193,152 6,24 12,137 13,252 l 3,207 h -82 c -48,0 -83,-4 -85,-10 -2,-7 -16,-5 -40,5 -42,17 -128,19 -173,3 z m 176,-134 c 30,-27 42,-78 29,-119 -15,-45 -44,-65 -96,-65 -58,0 -84,32 -84,105 0,48 3,56 32,80 26,22 39,26 66,21 19,-3 43,-13 53,-22 z"
       id="path12"
       style="fill:#ffffff" />
    <path
       d="m 583,623 c -13,-8 -23,-21 -23,-29 0,-18 38,-28 55,-14 8,7 26,9 40,6 19,-5 28,-17 40,-58 8,-28 15,-57 15,-63 0,-6 14,-24 30,-40 l 30,-29 v 25 c -1,57 -39,174 -65,197 -31,26 -89,29 -122,5 z"
       id="path13"
       style="fill:#ffffff" />
    <path
       d="m 122,598 c -19,-19 -14,-34 14,-53 25,-16 26,-21 21,-70 -5,-48 -3,-55 18,-69 21,-14 23,-14 29,7 12,46 6,132 -12,153 -25,32 -56,46 -70,32 z"
       id="path14"
       style="fill:#ffffff" />
    <path
       d="m 476,597 c -17,-12 -14,-17 35,-53 63,-46 115,-52 151,-16 21,21 21,23 5,39 -13,13 -20,15 -29,5 -19,-19 -59,-14 -94,13 -38,29 -44,30 -68,12 z"
       id="path15"
       style="fill:#ffffff" />
    <path
       d="M 17,536 C 14,529 8,487 5,443 -4,343 11,306 68,290 c 38,-12 92,-1 92,19 0,16 -29,33 -46,27 -9,-4 -28,1 -41,9 -23,15 -24,20 -18,80 9,79 -19,160 -38,111 z"
       id="path16"
       style="fill:#ffffff" />
    <path
       d="m 550,493 c 0,-26 36,-125 51,-142 37,-39 99,-40 99,-1 0,15 -7,20 -25,20 -28,0 -49,28 -60,78 -4,18 -15,37 -25,42 -22,12 -40,13 -40,3 z"
       id="path17"
       style="fill:#ffffff" />
    <path
       d="m 635,440 c -7,-12 13,-52 24,-46 14,9 51,-24 51,-45 0,-11 -11,-42 -25,-70 -20,-38 -24,-58 -19,-84 3,-19 11,-32 16,-29 5,4 25,38 44,77 35,73 42,123 24,158 -20,36 -100,64 -115,39 z"
       id="path18"
       style="fill:#ffffff" />
    <path
       d="m 70,395 c -19,-23 4,-46 40,-38 25,5 33,0 61,-41 33,-46 43,-51 73,-40 13,5 11,13 -14,49 -17,24 -42,53 -56,64 -31,24 -86,28 -104,6 z"
       id="path19"
       style="fill:#ffffff" />
    <path
       d="m 537,315 c -32,-66 -34,-103 -6,-139 38,-49 73,-26 43,30 -18,33 -18,34 5,80 22,46 22,48 4,66 -18,18 -19,17 -46,-37 z"
       id="path20"
       style="fill:#ffffff" />
    <path
       d="m 20,287 c 0,-18 81,-137 108,-157 35,-28 92,-26 126,5 14,13 26,31 26,40 0,26 -29,29 -54,6 -36,-34 -61,-27 -99,29 C 95,258 20,311 20,287 Z"
       id="path21"
       style="fill:#ffffff" />
    <path
       d="m 580,260 c -9,-17 -9,-25 4,-39 9,-10 16,-29 16,-43 0,-21 -10,-30 -57,-53 -32,-15 -68,-39 -80,-53 -44,-53 -27,-52 95,4 59,27 75,39 86,66 18,43 11,80 -24,113 l -28,27 z"
       id="path22"
       style="fill:#ffffff" />
    <path
       d="m 435,241 c -72,-33 -85,-48 -92,-100 -4,-32 -2,-42 11,-47 18,-7 49,13 40,27 -12,21 9,47 56,69 43,20 50,28 50,52 0,15 -1,28 -2,27 -2,0 -30,-13 -63,-28 z"
       id="path23"
       style="fill:#ffffff" />
    <path
       d="m 180,231 c -26,-26 -30,-34 -20,-46 17,-21 33,-19 48,6 14,22 31,22 114,3 20,-5 29,-1 38,15 9,19 7,22 -17,32 -15,6 -51,13 -80,16 -48,5 -54,3 -83,-26 z"
       id="path24"
       style="fill:#ffffff" />
    <path
       d="m 423,163 c -7,-2 -13,-17 -13,-33 0,-47 -22,-56 -94,-37 -48,13 -71,14 -99,6 -20,-5 -37,-12 -37,-14 0,-8 162,-55 191,-55 41,0 76,25 89,66 18,54 2,83 -37,67 z"
       id="path25"
       style="fill:#ffffff" />
  </g>
</svg>
