<?xml version="1.0" encoding="UTF-8" standalone="no"?>
<!-- Generator: Adobe Illustrator 28.0.0, SVG Export Plug-In . SVG Version: 6.00 Build 0)  -->

<svg
   version="1.1"
   id="Layer_1"
   x="0px"
   y="0px"
   viewBox="0 0 606.2 227.7"
   style="enable-background:new 0 0 606.2 227.7;"
   xml:space="preserve"
   sodipodi:docname="howdy.svg"
   inkscape:version="1.3.2 (091e20e, 2023-11-25)"
   xmlns:inkscape="http://www.inkscape.org/namespaces/inkscape"
   xmlns:sodipodi="http://sodipodi.sourceforge.net/DTD/sodipodi-0.dtd"
   xmlns="http://www.w3.org/2000/svg"
   xmlns:svg="http://www.w3.org/2000/svg"><defs
   id="defs6" /><sodipodi:namedview
   id="namedview6"
   pagecolor="#ffffff"
   bordercolor="#000000"
   borderopacity="0.25"
   inkscape:showpageshadow="2"
   inkscape:pageopacity="0.0"
   inkscape:pagecheckerboard="0"
   inkscape:deskcolor="#d1d1d1"
   inkscape:zoom="0.98317385"
   inkscape:cx="302.59145"
   inkscape:cy="113.91678"
   inkscape:window-width="1440"
   inkscape:window-height="751"
   inkscape:window-x="0"
   inkscape:window-y="25"
   inkscape:window-maximized="1"
   inkscape:current-layer="Layer_1" />
<style
   type="text/css"
   id="style1">
	.st0{fill:#FCF6EB;}
</style>
<path
   d="m 182.30078,81.5 c -6.49999,0 -11.90039,2.199223 -16.40039,6.699219 -4.49999,4.399995 -6.70117,9.900787 -6.70117,16.300781 0,6.39999 2.20118,11.8004 6.70117,16.40039 4.5,4.5 10.0004,6.79883 16.40039,6.79883 6.39999,0 11.79844,-2.19883 16.39844,-6.79883 C 203.19921,116.4004 205.5,110.89999 205.5,104.5 205.5,98.100006 203.29921,92.699214 198.69922,88.199219 194.19922,83.699223 188.80077,81.5 182.30078,81.5 Z"
   style="fill:#ffffff"
   id="path8" /><path
   d="M 28.900391,0 C 20.900399,0 13.599213,2.7992242 8.1992188,8.1992188 2.7992241,13.599213 0,20.800399 0,28.900391 V 156.5 c 0,8.09999 2.7992242,15.29961 8.1992188,20.59961 5.3999942,5.39999 12.5015702,8.20117 20.6015622,8.20117 8.099992,0 15.099615,-2.80157 20.59961,-8.10156 5.599994,-5.4 8.5,-12.59884 8.5,-20.79883 v -28.70117 h 20.699218 v 42.40039 c 0,16.09998 5.599621,29.9004 16.59961,40.90039 16.599981,16.59998 34.000401,16.59961 49.400391,16.59961 H 146 c 7.99999,0 15.09961,-2.79962 20.59961,-8.09961 5.59999,-5.39999 8.5,-12.60079 8.5,-20.80078 0,-2.8 -0.29961,-11.49844 -0.0996,-13.39844 2.4,0.2 4.79922,0.39844 7.19922,0.39844 18.29998,0 33.9004,-6.29884 46.40039,-18.79883 2.8,-2.8 5.3,-5.8 7.5,-9 2.3,3.8 5.10078,7.3 8.30078,10.5 10.99999,10.99999 24.80002,16.5 41,16.5 9.99999,0 19.90001,-2.40079 28.5,-6.80078 8.59999,4.39999 18.50001,6.80078 28.5,6.80078 16.29998,0 30.10001,-5.60001 41,-16.5 3.3,-3.3 6.1,-6.90118 8.5,-10.70117 2.2,3.1 4.60039,6.00078 7.40039,8.80078 12.49999,12.49999 27.99924,18.80078 46.19922,18.80078 18.19998,0 33.70079,-6.30079 46.30078,-18.80078 2.8,-2.8 8.59922,-6.80078 9.19922,-5.80078 -0.5,0.4 -1.00039,0.90078 -1.40039,1.30078 -5.5,5.49999 -8.40039,12.60079 -8.40039,20.80078 v 16 c 0,8.19999 2.9,15.39883 8.5,20.79883 5.39999,5.29999 12.60157,8.09961 20.60156,8.09961 h 28.29883 c 16.09998,0 29.9004,-5.59962 40.90039,-16.59961 10.99999,-10.99999 16.59961,-24.80041 16.59961,-40.90039 V 68.300781 C 606.29961,60.200789 603.39999,53.099213 598,47.699219 592.60001,42.299224 585.50038,39.5 577.40039,39.5 c -8.09999,0 -15.19961,2.799615 -20.59961,8.099609 -4.19999,3.999996 -6.80039,9.100787 -7.90039,14.800782 C 546.60039,48.300405 535.90077,39.5 520.30078,39.5 c -3.3,0 -6.50039,0.500392 -9.40039,1.400391 v -12 c 0,-8.199992 -2.9,-15.400787 -8.5,-20.8007816 C 496.9004,2.7996147 489.80077,0 481.80078,0 c -7.99999,0 -15.1,2.9007866 -20.5,8.3007813 C 455.90079,13.700776 453,20.900789 453,28.800781 v 11 C 450.7,39.300782 448.19922,39 445.69922,39 c -18.29998,0 -33.89845,6.300403 -46.39844,18.900391 l -0.5,0.5 C 395.40078,46.400403 385.19999,39 371,39 c -8.09999,0 -15.19961,2.799224 -20.59961,8.199219 -4.2,4.199996 -6.90078,9.500396 -7.80078,15.40039 -1,-5.999994 -3.59883,-11.200394 -7.79883,-15.40039 C 329.40079,41.799224 322.29921,39 314.19922,39 c -8.09999,0 -15.19962,2.799224 -20.59961,8.199219 -4.2,4.199996 -6.89883,9.500396 -7.79883,15.40039 C 284.80078,56.699615 282.2,51.399215 278,47.199219 272.60001,41.799224 265.50038,39 257.40039,39 243.1004,39 232.8,46.499231 229.5,58.699219 l -0.59961,-0.59961 C 216.4004,45.699622 200.79998,39.400391 182.5,39.400391 c -18.29998,0 -33.29962,6.100012 -45.59961,18 v -28.5 c 0,-8.199992 -2.9,-15.400787 -8.5,-20.8007816 C 122.7004,2.7996147 115.5996,0 107.59961,0 99.599617,0 92.300385,2.7992242 86.900391,8.1992188 81.500396,13.599213 78.699219,20.700789 78.699219,28.800781 V 55 H 58 V 28.900391 C 58,20.700399 55.099994,13.499604 49.5,8.0996094 44.000005,2.7996147 36.900383,0 28.900391,0 Z m 0,16 c 3.799996,0 6.900393,1.299612 9.40039,3.599609 C 40.800779,21.899607 42,25.000395 42,28.900391 V 71.099609 H 94.699219 V 28.900391 c 0,-3.799997 1.201565,-6.900784 3.601562,-9.300782 C 100.60078,17.199612 103.79961,16 107.59961,16 c 3.8,0 6.90039,1.299612 9.40039,3.599609 2.5,2.299998 3.69922,5.400786 3.69922,9.300782 V 154.09961 c 0,4.39999 1.5,7.99961 4.5,11.09961 4.79999,4.99999 10.10118,4.5 19.70117,4.5 H 146 c 3.8,0 6.90039,1.30117 9.40039,3.70117 2.5,2.4 3.69922,5.5004 3.69922,9.40039 0,3.9 -1.19922,6.99922 -3.69922,9.19922 -2.4,2.4 -5.50039,3.59961 -9.40039,3.59961 h -1.09961 c -14.39998,0 -26.30079,0.0996 -38.30078,-11.90039 C 98.699617,175.79923 94.699219,165.8996 94.699219,154.09961 V 97 H 42 v 43.5 c 0,3.8 -1.299221,6.90078 -3.699219,9.30078 -2.399997,2.4 -5.600394,3.59961 -9.40039,3.59961 -3.799997,0 -6.900784,-1.19961 -9.300782,-3.59961 C 17.199612,147.50078 16,144.4 16,140.5 V 28.900391 c 0,-3.899996 1.199612,-7.000784 3.599609,-9.300782 C 21.899607,17.199612 25.100394,16 28.900391,16 Z m 452.900389,0 c 3.8,0 6.89844,1.299612 9.39844,3.599609 2.5,2.299998 3.70117,5.400786 3.70117,9.300782 v 75.400389 c -0.1,13.89999 -4.80079,25.49845 -14.30078,34.89844 -9.49999,9.39999 -21.20001,14.10156 -35,14.10156 -13.79999,0 -25.5004,-4.70157 -34.90039,-14.10156 -9.39999,-9.39999 -14.09961,-20.89845 -14.09961,-34.89844 0,-13.999985 4.60001,-25.701571 14,-35.101561 9.39999,-9.399991 21.00001,-14.09961 35,-14.09961 3.8,0 7.00039,1.301175 9.40039,3.701172 2.5,2.399998 3.69922,5.598442 3.69922,9.398438 0,3.799996 -1.29922,6.900783 -3.69922,9.300781 -2.4,2.399998 -5.50039,3.599609 -9.40039,3.599609 -6.49999,0 -11.9004,2.200786 -16.40039,6.800782 -4.5,4.499995 -6.69922,10.000397 -6.69922,16.400389 0,6.39999 2.19922,11.79883 6.69922,16.29883 4.49999,4.49999 9.9004,6.70117 16.40039,6.70117 6.49999,0 12,-2.20118 16.5,-6.70117 4.49999,-4.4 6.80078,-9.89884 6.80078,-16.29883 V 28.900391 c 0,-3.699997 1.29922,-6.701175 3.69922,-9.201172 C 474.99961,17.199221 478.00079,16 481.80078,16 Z M 256.90039,55 c 3.8,0 6.89883,1.199612 9.29883,3.599609 2.4,2.299998 3.60156,5.500785 3.60156,9.300782 v 43.499999 c 0,4.4 1.5,8.09961 4.5,11.09961 3.1,3 6.69962,4.5 11.09961,4.5 4.4,0 8.09961,-1.5 11.09961,-4.5 3,-3 4.5,-6.69961 4.5,-11.09961 V 67.900391 c 0,-3.799997 1.19961,-6.900784 3.59961,-9.300782 2.3,-2.399997 5.50078,-3.599609 9.30078,-3.599609 3.8,0 6.89883,1.199612 9.29883,3.599609 2.4,2.299998 3.60156,5.500785 3.60156,9.300782 v 43.499999 c 0,4.4 1.5,8.09961 4.5,11.09961 3.1,3 6.69962,4.5 11.09961,4.5 4.4,0 8.09961,-1.5 11.09961,-4.5 3,-3 4.5,-6.69961 4.5,-11.09961 V 67.900391 c 0,-3.799997 1.19961,-6.900784 3.59961,-9.300782 C 363.89961,56.199612 367.00039,55 370.90039,55 379.60038,55 384,59.300399 384,67.900391 V 111.5 c 0,11.89999 -3.90079,21.79923 -11.80078,29.69922 C 364.29923,149.09921 354.39999,153 342.5,153 c -10.19999,0 -20.70001,-3.30079 -28.5,-9.80078 -7.79999,6.49999 -18.29923,9.80117 -28.69922,9.70117 -11.89999,0 -21.80118,-3.90079 -29.70117,-11.80078 -7.89999,-7.89999 -11.79883,-17.79923 -11.79883,-29.69922 V 67.900391 C 243.80078,59.300399 248.2004,55 256.90039,55 Z m 263.29883,0.400391 c 8.69999,0 13.10156,4.300399 13.10156,12.90039 v 43.499999 c 0,4.4 1.5,8.09961 4.5,11.09961 3.1,3 6.69962,4.5 11.09961,4.5 4.4,0 8,-1.5 11,-4.5 2.9,-3 4.40039,-6.69961 4.40039,-11.09961 V 68.300781 C 564.30078,64.500785 565.6,61.399998 568,59 c 2.4,-2.399998 5.60039,-3.599609 9.40039,-3.599609 3.8,0 6.89883,1.199611 9.29883,3.599609 2.4,2.299998 3.60156,5.500785 3.60156,9.300781 v 85.798829 c 0,11.79999 -4.00157,21.70118 -12.10156,29.70117 -7.89999,7.89999 -17.79962,11.89844 -29.59961,11.89844 h -28.29883 c -3.79999,0 -7.00039,-1.19961 -9.40039,-3.59961 -2.5,-2.3 -3.70117,-5.49883 -3.70117,-9.29883 0,-3.79999 1.30117,-7.00039 3.70117,-9.40039 2.4,-2.5 5.6004,-3.70117 9.40039,-3.70117 h 28.29883 c 4.3,0 7.9,-1.49961 11,-4.59961 3.1,-3.1 4.59961,-6.8 4.59961,-11 v -3.69922 c -4.9,1.9 -9.99844,2.90039 -15.39844,2.90039 -11.89999,0 -21.80118,-3.90079 -29.70117,-11.80078 -7.89999,-7.89999 -11.79883,-17.79923 -11.79883,-29.69922 V 68.300781 c 0,-3.799996 1.19961,-6.900783 3.59961,-9.300781 2.3,-2.399998 5.49883,-3.599609 9.29883,-3.599609 z m -338,0.09961 c 13.99998,0 25.70157,4.600009 35.10156,14 9.49999,9.299991 14.09961,21.000014 14.09961,35 0,13.99999 -4.69962,25.69962 -14.09961,35.09961 -9.39999,9.39999 -21.10158,14.09961 -35.10156,14.09961 -13.99999,0 -25.70001,-4.69962 -35,-14.09961 -9.29999,-9.39999 -14,-21.09962 -14,-35.09961 0,-13.999986 4.60001,-25.700009 14,-35 9.39999,-9.299991 21.00001,-14 35,-14 z"
   style="fill:#ffffff"
   id="path7" />

</svg>
