<?xml version="1.0" encoding="UTF-8" standalone="no"?>
<svg
   width="224"
   height="58"
   viewBox="0 0 224 58"
   fill="none"
   version="1.1"
   id="svg14"
   sodipodi:docname="mercado-libre.svg"
   inkscape:version="1.3.2 (091e20e, 2023-11-25)"
   xmlns:inkscape="http://www.inkscape.org/namespaces/inkscape"
   xmlns:sodipodi="http://sodipodi.sourceforge.net/DTD/sodipodi-0.dtd"
   xmlns="http://www.w3.org/2000/svg"
   xmlns:svg="http://www.w3.org/2000/svg">
  <defs
     id="defs14" />
  <sodipodi:namedview
     id="namedview14"
     pagecolor="#ffffff"
     bordercolor="#000000"
     borderopacity="0.25"
     inkscape:showpageshadow="2"
     inkscape:pageopacity="0.0"
     inkscape:pagecheckerboard="0"
     inkscape:deskcolor="#d1d1d1"
     inkscape:zoom="2.2008929"
     inkscape:cx="112"
     inkscape:cy="28.851927"
     inkscape:window-width="1392"
     inkscape:window-height="926"
     inkscape:window-x="0"
     inkscape:window-y="25"
     inkscape:window-maximized="0"
     inkscape:current-layer="svg14" />
  <path
     d="M221.134 10.475C219.667 8.59497 217.43 7.67164 214.424 7.70497C211.424 7.70497 209.194 8.62497 207.724 10.475C206.246 12.3302 205.464 14.6439 205.514 17.015C205.456 19.3934 206.239 21.7161 207.724 23.575C209.194 25.395 211.434 26.305 214.424 26.305C217.414 26.305 219.664 25.395 221.134 23.575C222.618 21.7161 223.401 19.3934 223.344 17.015C223.393 14.6439 222.611 12.3302 221.134 10.475ZM217.484 21.055C217.108 21.5062 216.638 21.8693 216.107 22.1184C215.575 22.3676 214.995 22.4968 214.409 22.4968C213.822 22.4968 213.242 22.3676 212.71 22.1184C212.179 21.8693 211.709 21.5062 211.334 21.055C210.552 19.8727 210.173 18.4698 210.254 17.055C210.172 15.64 210.551 14.2366 211.334 13.055C211.715 12.6129 212.187 12.2582 212.717 12.015C213.248 11.7719 213.825 11.646 214.409 11.646C214.992 11.646 215.569 11.7719 216.1 12.015C216.63 12.2582 217.102 12.6129 217.484 13.055C218.258 14.2399 218.633 15.6416 218.554 17.055C218.632 18.4682 218.257 19.8695 217.484 21.055Z"
     fill="black"
     id="path1"
     style="fill:#ffffff" />
  <path
     d="M183.514 8.93498C181.919 8.15205 180.16 7.76122 178.384 7.79499C175.434 7.79499 173.384 8.56499 172.134 10.105C171.334 11.2032 170.884 12.5171 170.844 13.875H175.254C175.327 13.294 175.551 12.7423 175.904 12.275C176.209 11.9776 176.576 11.7509 176.978 11.6109C177.381 11.4709 177.81 11.4211 178.234 11.465C178.996 11.4228 179.757 11.5634 180.454 11.875C180.709 12.0256 180.916 12.2457 181.05 12.5095C181.185 12.7734 181.241 13.0701 181.214 13.365C181.208 13.6601 181.108 13.9457 180.928 14.1797C180.748 14.4136 180.497 14.5838 180.214 14.665C179.623 14.8755 179.008 15.0099 178.384 15.065L176.824 15.255C175.432 15.3795 174.075 15.7627 172.824 16.385C172.011 16.8512 171.346 17.5361 170.904 18.3617C170.462 19.1874 170.261 20.1206 170.324 21.055C170.279 21.771 170.397 22.4878 170.667 23.1525C170.937 23.8171 171.353 24.4126 171.884 24.895C172.999 25.7924 174.392 26.2733 175.824 26.255C185.824 26.695 185.694 20.995 185.824 19.805V13.235C185.777 11.1283 185.007 9.69498 183.514 8.93498ZM181.194 18.935C181.248 19.5285 181.158 20.1264 180.929 20.6769C180.701 21.2275 180.342 21.7142 179.884 22.095C179.076 22.6644 178.112 22.9684 177.124 22.965C176.542 22.9812 175.972 22.7937 175.514 22.435C175.278 22.2253 175.096 21.9628 174.981 21.6691C174.866 21.3754 174.823 21.0588 174.854 20.745C174.833 20.3528 174.924 19.9628 175.115 19.6197C175.306 19.2766 175.589 18.9942 175.934 18.805C176.595 18.4821 177.304 18.2693 178.034 18.175L179.034 17.985C179.466 17.915 179.892 17.8045 180.304 17.655C180.616 17.5429 180.915 17.3953 181.194 17.215V18.935Z"
     fill="black"
     id="path2"
     style="fill:#ffffff" />
  <path
     d="M160.744 11.705C161.218 11.6694 161.693 11.747 162.131 11.9313C162.569 12.1156 162.958 12.4013 163.264 12.765C163.634 13.2866 163.871 13.8908 163.954 14.525H168.884C168.614 12.045 167.744 10.305 166.274 9.32501C164.573 8.28005 162.598 7.76808 160.604 7.85501C159.423 7.79014 158.241 7.97878 157.139 8.40826C156.037 8.83773 155.039 9.4981 154.214 10.345C152.573 12.295 151.746 14.8016 151.904 17.345C151.801 19.6826 152.543 21.979 153.994 23.815C155.394 25.475 157.574 26.315 160.534 26.315C161.81 26.3971 163.087 26.1668 164.255 25.6441C165.422 25.1213 166.445 24.3219 167.234 23.315C168.136 22.1881 168.688 20.822 168.824 19.385H163.914C163.85 20.1993 163.551 20.9776 163.054 21.625C162.741 21.9358 162.364 22.174 161.95 22.3226C161.535 22.4713 161.092 22.5267 160.654 22.485C159.947 22.5325 159.245 22.3442 158.657 21.9497C158.068 21.5552 157.628 20.9768 157.404 20.305C157.048 19.3219 156.885 18.2796 156.924 17.235C156.885 16.1381 157.048 15.0434 157.404 14.005C157.628 13.3065 158.077 12.7019 158.682 12.2858C159.286 11.8697 160.011 11.6654 160.744 11.705Z"
     fill="black"
     id="path3"
     style="fill:#ffffff" />
  <path
     d="M150.604 7.85498C140.484 7.85498 141.084 16.855 141.084 16.855V25.955H145.674V17.375C145.611 16.3115 145.793 15.2478 146.204 14.265C146.834 13.075 148.064 12.475 149.894 12.475H150.444L151.214 12.535V7.88498H150.824L150.604 7.85498Z"
     fill="black"
     id="path4"
     style="fill:#ffffff" />
  <path
     d="M133.724 21.155C133.549 21.4115 133.34 21.6436 133.104 21.845C132.355 22.3719 131.446 22.6196 130.534 22.545C129.677 22.5932 128.825 22.388 128.084 21.955C127.485 21.5611 126.999 21.0186 126.673 20.3805C126.347 19.7425 126.192 19.0308 126.224 18.315H138.934C138.971 17.1595 138.921 16.0029 138.784 14.855C138.599 13.562 138.124 12.3276 137.394 11.245C136.657 10.1195 135.617 9.22519 134.394 8.66498C133.1 8.10579 131.703 7.82635 130.294 7.84498C129.145 7.80116 127.999 7.9933 126.928 8.40953C125.856 8.82576 124.881 9.45724 124.064 10.265C122.464 11.885 121.654 14.195 121.654 17.265C121.654 20.495 122.544 22.815 124.324 24.265C126.053 25.6819 128.228 26.4433 130.464 26.415C131.675 26.485 132.887 26.2945 134.019 25.8564C135.151 25.4182 136.175 24.7426 137.024 23.875C137.775 23.1187 138.319 22.182 138.604 21.155H133.724ZM127.604 12.655C127.964 12.3109 128.392 12.0446 128.86 11.8726C129.328 11.7006 129.826 11.6265 130.324 11.655C131.312 11.6225 132.277 11.9574 133.034 12.595C133.413 12.9482 133.716 13.3753 133.924 13.8499C134.132 14.3245 134.241 14.8367 134.244 15.355H126.394C126.498 14.3487 126.922 13.4024 127.604 12.655Z"
     fill="black"
     id="path5"
     style="fill:#ffffff" />
  <path
     d="M119.794 25.9049H115.604V15.3449C115.651 14.9208 115.605 14.4915 115.469 14.0868C115.334 13.6821 115.112 13.3119 114.819 13.0016C114.525 12.6914 114.168 12.4487 113.772 12.2904C113.376 12.1321 112.95 12.062 112.524 12.0849C112.096 12.0718 111.669 12.1478 111.272 12.308C110.875 12.4683 110.516 12.7093 110.217 13.0158C109.918 13.3224 109.686 13.6877 109.535 14.0886C109.385 14.4896 109.32 14.9174 109.344 15.3449V25.9049H105.144V15.3449C105.193 14.9271 105.151 14.5036 105.021 14.1033C104.892 13.703 104.677 13.3355 104.392 13.0259C104.107 12.7163 103.759 12.472 103.371 12.3096C102.983 12.1471 102.564 12.0705 102.144 12.0849C101.715 12.0687 101.287 12.1426 100.889 12.3018C100.49 12.4609 100.13 12.7019 99.8299 13.0091C99.5303 13.3162 99.2984 13.6828 99.1491 14.0852C98.9999 14.4875 98.9367 14.9167 98.9636 15.3449V25.9049H94.7036V15.4449C94.7036 11.0849 97.6036 7.79495 102.084 7.79495C103.082 7.76875 104.074 7.97456 104.979 8.39621C105.885 8.81785 106.681 9.44383 107.304 10.2249C107.935 9.45595 108.731 8.83843 109.632 8.41787C110.534 7.99731 111.519 7.78444 112.514 7.79495C117.094 7.79495 119.794 10.9549 119.794 15.4449V25.9049Z"
     fill="black"
     id="path6"
     style="fill:#ffffff" />
  <path
     d="M204.154 2.33512C204.154 2.33512 199.524 1.84512 199.524 5.55512V10.4751C199.03 9.67394 198.342 9.01016 197.524 8.54511C196.66 8.07385 195.688 7.83603 194.704 7.85511C193.651 7.81825 192.605 8.03099 191.651 8.47594C190.697 8.92089 189.862 9.5854 189.214 10.4151C187.734 12.491 187.007 15.0099 187.154 17.5551C187.061 19.8547 187.803 22.1103 189.244 23.9051C190.634 25.5451 193.364 26.2751 195.794 26.2751C204.244 26.2751 204.144 19.0251 204.144 19.0251L204.154 2.33512ZM198.604 21.0951C198.276 21.5652 197.835 21.9441 197.32 22.1961C196.806 22.4481 196.236 22.5647 195.664 22.5351C195.097 22.5697 194.531 22.4538 194.023 22.1992C193.516 21.9445 193.085 21.5602 192.774 21.0851C192.064 19.8749 191.717 18.4867 191.774 17.0851C191.727 15.7696 192.049 14.4672 192.704 13.3251C193.011 12.8305 193.446 12.4286 193.964 12.1627C194.482 11.8967 195.063 11.7765 195.644 11.8151C196.485 11.8063 197.302 12.1009 197.944 12.6451C199.024 13.5651 199.564 15.2151 199.564 17.3451C199.638 18.6642 199.303 19.9742 198.604 21.0951Z"
     fill="black"
     id="path7"
     style="fill:#ffffff" />
  <path
     d="M151.534 47.845C151.358 48.104 151.146 48.3364 150.904 48.535C150.153 49.0679 149.242 49.3257 148.324 49.265C147.475 49.3024 146.633 49.0903 145.904 48.655C145.315 48.2522 144.839 47.7051 144.522 47.0661C144.206 46.427 144.058 45.7174 144.094 45.005H156.694C156.723 43.8593 156.67 42.7129 156.534 41.575C156.352 40.2939 155.883 39.0702 155.164 37.995C154.421 36.8794 153.382 35.9929 152.164 35.435C150.881 34.8882 149.498 34.6157 148.104 34.635C146.963 34.588 145.825 34.7759 144.76 35.1871C143.696 35.5982 142.727 36.2238 141.914 37.025C140.334 38.625 139.534 40.925 139.534 43.915C139.534 47.115 140.414 49.4217 142.174 50.835C143.89 52.2397 146.046 52.994 148.264 52.965C149.464 53.0341 150.666 52.8449 151.787 52.4102C152.908 51.9755 153.923 51.3054 154.764 50.445C155.506 49.7178 156.05 48.8123 156.344 47.815L151.534 47.845ZM145.414 39.375C145.77 39.031 146.194 38.7646 146.659 38.5925C147.124 38.4203 147.619 38.3463 148.114 38.375C149.093 38.3433 150.049 38.6785 150.794 39.315C151.169 39.6641 151.469 40.0865 151.676 40.5559C151.882 41.0254 151.99 41.5322 151.994 42.045H144.204C144.315 41.0495 144.738 40.1148 145.414 39.375Z"
     fill="black"
     id="path8"
     style="fill:#ffffff" />
  <path
     d="M119.974 34.6551C118.991 34.6362 118.022 34.8777 117.164 35.3551C116.339 35.8114 115.649 36.4771 115.164 37.2851V29.0651C115.164 29.0651 110.534 28.6051 110.534 32.3651V45.7451C110.534 45.7451 110.444 52.9951 118.894 52.9951C121.314 52.9951 124.044 52.2751 125.444 50.6251C126.881 48.8333 127.621 46.5806 127.524 44.2851C127.676 41.7919 126.97 39.3217 125.524 37.2851C124.876 36.4348 124.034 35.7521 123.069 35.2945C122.103 34.8369 121.042 34.6176 119.974 34.6551ZM121.874 47.7651C121.562 48.2402 121.131 48.6245 120.624 48.8792C120.116 49.1338 119.55 49.2497 118.984 49.2151C118.41 49.2446 117.839 49.1279 117.323 48.876C116.807 48.6242 116.363 48.2453 116.034 47.7751C115.322 46.6652 114.973 45.362 115.034 44.0451C115.034 41.9185 115.57 40.3951 116.644 39.4751C117.289 38.9303 118.109 38.6357 118.954 38.6451C119.533 38.6062 120.112 38.7263 120.629 38.9924C121.145 39.2585 121.579 39.6605 121.884 40.1551C122.543 41.2921 122.868 42.5917 122.824 43.9051C122.894 45.27 122.564 46.6258 121.874 47.8051V47.7651Z"
     fill="black"
     id="path9"
     style="fill:#ffffff" />
  <path
     d="M138.664 34.655H138.454C128.334 34.655 128.934 43.605 128.934 43.605V52.605H133.524V44.195C133.457 43.1313 133.638 42.0665 134.054 41.085C134.684 39.895 135.914 39.295 137.744 39.295H138.294L139.064 39.365V34.705L138.664 34.655Z"
     fill="black"
     id="path10"
     style="fill:#ffffff" />
  <path
     d="M94.7036 32.3451V52.5551H99.0136V29.0551C99.0136 29.0551 94.7036 28.8751 94.7036 32.3451Z"
     fill="black"
     id="path11"
     style="fill:#ffffff" />
  <path
     d="M107.144 29.0151H102.534V33.5851H107.144V29.0151Z"
     fill="black"
     id="path12"
     style="fill:#ffffff" />
  <path
     d="M107.154 35.145H102.534V52.585H107.154V35.145Z"
     fill="black"
     id="path13"
     style="fill:#ffffff" />
  <path
     d="M82.4436 27.125C82.3236 12.455 64.1536 0.655034 41.8336 0.655034H41.3036C34.0783 0.652085 26.9169 2.00904 20.1936 4.65503C8.89357 9.19503 1.22356 17.195 0.653564 26.375C0.653564 26.625 0.653564 26.875 0.653564 27.135C0.653564 27.245 0.653564 27.355 0.653564 27.465V27.585C0.653564 27.665 0.653564 27.735 0.653564 27.805V29.025C0.653564 29.085 0.653564 29.135 0.653564 29.185V29.375C0.653564 29.575 0.653564 29.785 0.653564 29.995C0.653564 30.205 0.653564 30.365 0.653564 30.555C1.09356 37.855 5.05356 44.495 11.9036 49.345C19.3536 54.605 29.4536 57.345 41.1336 57.345H41.7636C53.7636 57.245 64.0636 54.285 71.5336 48.805C78.6036 43.655 82.5236 36.475 82.4636 28.655L82.4436 27.125ZM80.2236 23.955C74.4789 25.292 68.8738 27.1704 63.4836 29.565C59.6136 26.245 50.6636 18.565 48.2436 16.805C47.2723 16.0095 46.1735 15.384 44.9936 14.955C44.4667 14.7888 43.9159 14.7111 43.3636 14.725C42.682 14.7379 42.0068 14.8595 41.3636 15.085C39.6393 15.8078 38.0527 16.8227 36.6736 18.085L36.5836 18.165C35.4557 19.2186 34.1484 20.0619 32.7236 20.655C32.2605 20.7576 31.7879 20.8112 31.3136 20.815C30.4223 20.884 29.5366 20.6243 28.8236 20.085C28.8518 20.0233 28.8889 19.9661 28.9336 19.915L32.3036 16.225C34.9136 13.565 37.3736 11.065 43.0736 10.885H43.3536C45.9416 10.9823 48.4858 11.5835 50.8436 12.655C54.1202 14.2535 57.7178 15.0846 61.3636 15.085C65.2672 14.9736 69.1009 14.022 72.6036 12.295C76.6036 15.655 79.2736 19.655 80.2236 23.955ZM41.3236 2.48503H41.8336C47.2221 2.46115 52.5875 3.19157 57.7736 4.65503L58.1136 4.75503L58.8136 4.96503C63.0838 6.28276 67.1175 8.2709 70.7636 10.855C67.7999 12.1843 64.6007 12.9084 61.3536 12.985H61.2036C57.9155 12.9592 54.6754 12.1936 51.7236 10.745C49.0998 9.57638 46.2743 8.92773 43.4036 8.83503H42.9636C39.4851 8.81302 36.113 10.0328 33.4536 12.275C31.8522 12.3843 30.2704 12.6899 28.7436 13.185C27.6987 13.5501 26.6084 13.7688 25.5036 13.835H24.3936H24.2536C20.3137 13.1659 16.444 12.1349 12.6936 10.755C20.0436 5.58503 30.4436 2.57503 41.3236 2.48503ZM10.8136 12.175C15.9936 14.245 21.9936 15.715 23.8136 15.815H24.2236C24.6436 15.815 25.0736 15.865 25.5036 15.875C26.8012 15.8019 28.0829 15.553 29.3136 15.135C29.8136 14.985 30.3136 14.845 30.8236 14.725L30.7536 14.795L27.3336 18.555C27.0388 18.8269 26.8326 19.1811 26.7417 19.5716C26.6507 19.9621 26.6792 20.3709 26.8236 20.745C27.039 21.2089 27.387 21.5986 27.8236 21.865C28.9899 22.5145 30.3091 22.8391 31.6436 22.805C32.1643 22.8146 32.6843 22.7642 33.1936 22.655C34.6836 22.315 36.1936 21.085 37.8436 19.755C39.146 18.619 40.63 17.7097 42.2336 17.065C42.6221 16.9617 43.0216 16.9046 43.4236 16.895H43.7236C44.9457 17.0967 46.088 17.6333 47.0236 18.445C49.7336 20.445 61.3136 30.445 62.6436 31.545C62.8684 31.7537 63.0463 32.0079 63.1653 32.2907C63.2842 32.5735 63.3416 32.8783 63.3336 33.185C63.3215 33.4841 63.2346 33.7753 63.0809 34.0322C62.9271 34.289 62.7114 34.5031 62.4536 34.655C62.007 34.9586 61.4832 35.1286 60.9436 35.145C60.4681 35.1408 60.0036 35.0021 59.6036 34.745L59.2836 34.455C58.2136 33.455 54.9636 30.585 53.6236 29.455C53.3856 29.2002 53.0611 29.0433 52.7136 29.015C52.6134 29.0131 52.5141 29.0347 52.4238 29.0781C52.3335 29.1215 52.2546 29.1856 52.1936 29.265C51.8936 29.635 52.0536 30.165 52.5836 30.605L57.6536 35.605C57.9891 35.9213 58.2106 36.3397 58.2836 36.795C58.3023 37.1763 58.2115 37.5551 58.0219 37.8864C57.8323 38.2178 57.5518 38.488 57.2136 38.665C56.7362 39.0134 56.1643 39.2086 55.5736 39.225C55.1363 39.2216 54.7081 39.1007 54.3336 38.875L53.6036 38.155C52.2936 36.885 50.9336 35.575 49.9336 34.755C49.6914 34.5115 49.3744 34.3565 49.0336 34.315C48.9395 34.3151 48.8466 34.3348 48.7605 34.3726C48.6744 34.4105 48.5972 34.4658 48.5336 34.535C48.3936 34.705 48.2136 35.055 48.6136 35.535C48.7436 35.695 48.8836 35.835 48.8836 35.835L52.5836 39.915C52.7671 40.1187 52.8703 40.3821 52.874 40.6563C52.8776 40.9304 52.7815 41.1965 52.6036 41.405L52.4936 41.565L52.1736 41.865C51.7039 42.2174 51.1306 42.4038 50.5436 42.395C50.3938 42.4063 50.2434 42.4063 50.0936 42.395C49.6736 42.325 49.5536 42.225 49.5136 42.175L49.3936 42.055C48.3443 40.9587 47.236 39.9205 46.0736 38.945C45.8432 38.7111 45.5397 38.5629 45.2136 38.525C45.1169 38.5237 45.0211 38.5436 44.933 38.5833C44.8449 38.6231 44.7665 38.6817 44.7036 38.755C44.3936 39.105 44.5336 39.615 45.0536 40.095L47.8436 43.205C47.7736 43.305 47.4636 43.645 46.3936 43.785C46.2571 43.7949 46.1201 43.7949 45.9836 43.785C45.0339 43.7309 44.1067 43.4753 43.2636 43.035C43.4929 42.4454 43.6083 41.8177 43.6036 41.185C43.6013 40.538 43.4702 39.8979 43.2178 39.3021C42.9654 38.7063 42.5968 38.1668 42.1336 37.715C41.2258 36.8209 40.0076 36.3122 38.7336 36.295C38.8208 35.3938 38.6199 34.4882 38.1599 33.7084C37.6999 32.9286 37.0045 32.3147 36.1736 31.955C35.5404 31.6856 34.8615 31.5396 34.1736 31.525C33.7293 31.5338 33.2883 31.6045 32.8636 31.735C32.3348 30.8541 31.5028 30.1963 30.5236 29.885C29.8146 29.6303 29.0567 29.5412 28.3079 29.6244C27.5592 29.7076 26.8394 29.9609 26.2036 30.365C25.8127 29.9336 25.3358 29.5889 24.8036 29.3529C24.2714 29.117 23.6957 28.9951 23.1136 28.995C22.0775 29.009 21.0821 29.4001 20.3136 30.095C19.1236 29.265 15.1436 26.935 5.15356 24.755C4.70356 24.655 3.72356 24.385 2.90356 24.155C3.79356 19.795 6.53356 15.655 10.8136 12.175ZM30.5436 38.395C30.4503 38.3105 30.3365 38.2519 30.2136 38.225C30.1182 38.2131 30.0213 38.2221 29.9298 38.2514C29.8382 38.2808 29.7542 38.3298 29.6836 38.395C29.2682 38.7473 28.7624 38.976 28.2236 39.055C27.9605 39.0563 27.6994 39.0089 27.4536 38.915C26.7407 38.6906 26.1351 38.2122 25.7517 37.5707C25.3682 36.9291 25.2337 36.1692 25.3736 35.435C25.4025 35.3334 25.3999 35.2254 25.3659 35.1254C25.332 35.0254 25.2684 34.938 25.1836 34.875C24.9236 34.705 24.6736 34.955 24.5136 35.115C24.3311 35.2905 24.1112 35.4221 23.8704 35.5001C23.6296 35.5781 23.3742 35.6003 23.1236 35.565C22.522 35.5218 21.957 35.26 21.5352 34.829C21.1133 34.3979 20.8638 33.8274 20.8336 33.225C20.8284 32.9283 20.8833 32.6336 20.995 32.3586C21.1067 32.0836 21.2729 31.8341 21.4836 31.625C21.6889 31.4171 21.9333 31.2518 22.2028 31.1385C22.4722 31.0252 22.7613 30.9663 23.0536 30.965C23.5778 30.9007 24.1067 31.0403 24.531 31.3548C24.9553 31.6693 25.2426 32.1348 25.3336 32.655C25.3336 32.655 25.3336 32.735 25.3336 32.785C25.3336 32.835 25.3936 33.235 25.6236 33.315C25.8536 33.395 26.0436 33.145 26.1536 32.985C26.1743 32.9414 26.2012 32.901 26.2336 32.865L26.3036 32.775C26.5844 32.3693 26.9726 32.0496 27.4247 31.8518C27.8768 31.654 28.375 31.5859 28.8636 31.655C29.2026 31.6534 29.5399 31.704 29.8636 31.805C30.3367 31.9719 30.7424 32.289 31.0186 32.7078C31.2948 33.1267 31.4265 33.6244 31.3936 34.125C31.3909 34.2719 31.4459 34.4139 31.5469 34.5205C31.6479 34.6271 31.7868 34.6898 31.9336 34.695C32.0237 34.692 32.1121 34.6699 32.1931 34.6303C32.2741 34.5906 32.3458 34.5343 32.4036 34.465C32.6123 34.2015 32.8724 33.9832 33.168 33.8234C33.4637 33.6635 33.7888 33.5654 34.1236 33.535C34.5651 33.5376 35.0012 33.633 35.4036 33.815C37.6036 34.655 36.6036 37.435 36.6036 37.455C36.4736 37.775 36.2636 38.325 36.7136 38.615H36.8036H36.9836C37.149 38.6015 37.3112 38.561 37.4636 38.495H37.5336C37.9011 38.3494 38.2891 38.2617 38.6836 38.235C39.0847 38.2116 39.4865 38.2705 39.8641 38.4079C40.2417 38.5453 40.5873 38.7585 40.8796 39.0342C41.1719 39.31 41.4048 39.6426 41.564 40.0116C41.7231 40.3806 41.8052 40.7782 41.8052 41.18C41.8052 41.5819 41.7231 41.9795 41.564 42.3485C41.4048 42.7175 41.1719 43.0501 40.8796 43.3258C40.5873 43.6016 40.2417 43.8147 39.8641 43.9522C39.4865 44.0896 39.0847 44.1484 38.6836 44.125C37.9293 44.1311 37.202 43.845 36.654 43.3268C36.106 42.8086 35.7797 42.0984 35.7436 41.345C35.7436 40.675 35.3536 40.565 35.1436 40.565C34.9319 40.5871 34.7359 40.6869 34.5936 40.845C34.4149 41.0407 34.1991 41.1989 33.9588 41.3105C33.7185 41.4221 33.4583 41.4848 33.1936 41.495C32.8697 41.495 32.5494 41.4269 32.2536 41.295C31.7491 41.1631 31.3102 40.8515 31.0193 40.4187C30.7284 39.986 30.6054 39.462 30.6736 38.945C30.6954 38.8495 30.6951 38.7503 30.6726 38.6549C30.65 38.5596 30.6059 38.4706 30.5436 38.395ZM80.6036 28.735C80.6036 29.0617 80.5636 29.395 80.4836 29.735C79.6036 35.405 75.7536 40.735 69.4036 44.835C62.0036 49.655 52.1936 52.335 41.7436 52.425H41.2236C19.8936 52.425 2.54356 41.425 2.43356 27.775C2.43356 27.345 2.43356 26.875 2.49356 26.345L4.66356 26.835C14.5036 28.935 18.1836 31.155 19.1036 31.835C18.9383 32.2969 18.857 32.7846 18.8636 33.275C18.8741 34.3856 19.322 35.4472 20.1101 36.2297C20.8982 37.0122 21.963 37.4524 23.0736 37.455C23.2634 37.465 23.4537 37.465 23.6436 37.455C23.8429 38.2301 24.2314 38.9436 24.7741 39.5317C25.3169 40.1199 25.997 40.5642 26.7536 40.825C27.222 41.0084 27.7205 41.1034 28.2236 41.105C28.4888 41.1027 28.7532 41.0759 29.0136 41.025C29.5363 42.0658 30.4437 42.862 31.5436 43.245C32.0696 43.451 32.6287 43.5595 33.1936 43.565C33.5563 43.5665 33.9171 43.5126 34.2636 43.405C34.6621 44.2425 35.2898 44.95 36.0738 45.4455C36.8578 45.941 37.7661 46.2044 38.6936 46.205C39.9539 46.1924 41.1608 45.6945 42.0636 44.815C43.2699 45.4728 44.6108 45.8457 45.9836 45.905C46.1934 45.9156 46.4037 45.9156 46.6136 45.905C47.18 45.8768 47.7331 45.723 48.2329 45.455C48.7326 45.1869 49.1667 44.8112 49.5036 44.355C49.5337 44.3174 49.5604 44.2773 49.5836 44.235C49.9603 44.3254 50.3461 44.3724 50.7336 44.375C51.7149 44.342 52.659 43.9911 53.4236 43.375C54.1733 42.857 54.7237 42.0985 54.9836 41.225C55.1936 41.225 55.4236 41.225 55.6336 41.225C56.6189 41.2026 57.5756 40.8895 58.3836 40.325C58.9651 39.9848 59.4526 39.5048 59.8018 38.9285C60.1511 38.3523 60.351 37.698 60.3836 37.025C60.5864 37.0446 60.7907 37.0446 60.9936 37.025C61.9151 37.0439 62.8221 36.7937 63.6036 36.305C64.1198 35.9833 64.5521 35.5435 64.8651 35.0219C65.178 34.5004 65.3626 33.9119 65.4036 33.305C65.4504 32.5597 65.2912 31.8159 64.9436 31.155C70.0163 29.077 75.2461 27.4051 80.5836 26.155C80.5836 26.585 80.6636 27.025 80.6636 27.465C80.6636 27.905 80.6036 28.315 80.6036 28.735Z"
     fill="black"
     id="path14"
     style="fill:#ffffff" />
</svg>
