<?xml version="1.0" encoding="UTF-8" standalone="no"?>
<svg
   viewBox="0 0 491.9765 99.624082"
   height="99.624084"
   width="491.9765"
   xml:space="preserve"
   id="svg2"
   version="1.1"
   sodipodi:docname="softserve.svg"
   inkscape:version="1.3.2 (091e20e, 2023-11-25)"
   xmlns:inkscape="http://www.inkscape.org/namespaces/inkscape"
   xmlns:sodipodi="http://sodipodi.sourceforge.net/DTD/sodipodi-0.dtd"
   xmlns="http://www.w3.org/2000/svg"
   xmlns:svg="http://www.w3.org/2000/svg"
   xmlns:rdf="http://www.w3.org/1999/02/22-rdf-syntax-ns#"
   xmlns:cc="http://creativecommons.org/ns#"
   xmlns:dc="http://purl.org/dc/elements/1.1/"><sodipodi:namedview
     id="namedview1"
     pagecolor="#ffffff"
     bordercolor="#000000"
     borderopacity="0.25"
     inkscape:showpageshadow="2"
     inkscape:pageopacity="0.0"
     inkscape:pagecheckerboard="0"
     inkscape:deskcolor="#d1d1d1"
     inkscape:zoom="0.77036202"
     inkscape:cx="244.69015"
     inkscape:cy="57.765049"
     inkscape:window-width="1440"
     inkscape:window-height="900"
     inkscape:window-x="0"
     inkscape:window-y="25"
     inkscape:window-maximized="0"
     inkscape:current-layer="g10" /><metadata
     id="metadata8"><rdf:RDF><cc:Work
         rdf:about=""><dc:format>image/svg+xml</dc:format><dc:type
           rdf:resource="http://purl.org/dc/dcmitype/StillImage" /></cc:Work></rdf:RDF></metadata><defs
     id="defs6" /><g
     transform="matrix(1.3333333,0,0,-1.3333333,-48.029367,150.24963)"
     id="g10"><g
       id="g12" /><g
       transform="translate(42.212402,46.478516)"
       id="g16"
       style="fill:#ffffff"><path
         id="path18"
         style="fill:#ffffff;fill-opacity:1;fill-rule:evenodd;stroke:none"
         d="m 17.401901,25.202894 c -5.000546,2.016226 -9.401026,3.629206 -9.401026,7.661661 0,4.637322 4.200459,6.250302 8.000874,6.250302 6.600721,0 10.201117,-3.629208 10.201117,-3.83083 l 0.400043,-0.403248 3.000326,5.04057 -0.200021,0.201622 c -0.200022,0.201622 -4.200459,4.838943 -13.201443,4.838943 -7.000764,0 -14.801618,-3.83083 -14.801618,-12.097359 0,-7.863287 7.000766,-10.686002 13.201444,-13.105476 5.000545,-2.016226 9.401028,-3.83083 9.401028,-7.661659 0,-4.4357 -4.000439,-6.451927 -8.000876,-6.451927 -7.600831,0 -12.201334,5.040565 -12.201334,5.040565 L 3.400372,11.089306 0,6.451981 0.200022,6.250359 c 0,0 1.400153,-1.61298 4.000437,-3.22596 2.400262,-1.411358 6.4007,-3.024342 11.80129,-3.024342 8.600941,0 14.801617,5.242188 14.801617,12.298981 0,7.661663 -7.200787,10.484383 -13.401465,12.903856 z" /></g><g
       transform="translate(79.817139,46.276855)"
       id="g20"
       style="fill:#ffffff"><path
         id="path22"
         style="fill:#ffffff;fill-opacity:1;fill-rule:evenodd;stroke:none"
         d="m 38.404205,22.783464 c 0,-9.476263 -7.000766,-16.936296 -16.001753,-16.936296 -9.000984,0 -16.00175,7.460033 -16.00175,16.936296 0,9.274641 7.000766,16.331431 16.00175,16.331431 9.000987,0 16.001753,-7.05679 16.001753,-16.331431 z M 22.602476,45.163574 C 10.001097,45.163574 0,35.284065 0,22.783464 0,10.081242 10.001097,1.11e-4 22.602476,1.11e-4 c 12.601378,0 22.602476,10.081131 22.602476,22.783353 -0.200023,12.500601 -10.001098,22.38011 -22.602476,22.38011 z" /></g><g
       transform="translate(129.62231,47.285156)"
       id="g24"
       style="fill:#ffffff"><path
         id="path26"
         style="fill:#ffffff;fill-opacity:1;fill-rule:evenodd;stroke:none"
         d="m 23.202539,60.083534 c 0,0 -1.000108,0.201622 -2.600284,0.201622 -4.400482,0 -14.801624,-1.61298 -14.801624,-16.12981 v -1.61298 H 0 V 36.896931 H 5.800631 V -8e-6 h 6.400702 V 37.098557 H 23.00252 v 5.443809 H 12.201333 v 1.61298 c 0,3.83083 1.200131,10.282753 9.000987,10.282753 1.200131,0 2.000219,-0.201622 2.000219,-0.201622 h 0.400046 v 5.847057 z" /></g><g
       transform="translate(159.42566,46.478027)"
       id="g28"
       style="fill:#ffffff"><path
         id="path30"
         style="fill:#ffffff;fill-opacity:1;fill-rule:evenodd;stroke:none"
         d="M 23.602589,6.048817 23.202536,5.847195 c 0,0 -0.800076,-0.201626 -1.800185,-0.201626 -3.400371,0 -9.201019,1.411358 -9.201019,11.089245 v 20.968757 h 10.601166 v 5.645436 H 12.001313 V 55.849609 H 5.600619 V 43.349007 H 0 V 37.703571 H 5.600619 V 16.33157 c 0,-14.315209 9.601048,-16.331433 15.20166,-16.331433 1.600175,0 2.400268,0.201619 2.600292,0.201619 h 0.400037 v 5.847061" /></g><g
       transform="translate(191.42871,46.478516)"
       id="g32"
       style="fill:#ffffff"><path
         id="path34"
         style="fill:#ffffff;fill-opacity:1;fill-rule:evenodd;stroke:none"
         d="m 4.800528,13.7104 c 0,0 4.600508,-4.637322 11.601274,-4.637322 3.000328,0 5.600603,1.411358 5.600603,3.83083 0,6.451927 -20.802277,5.645435 -20.802277,19.355778 0,8.064907 7.200797,12.702228 16.401803,12.702228 9.601049,0 14.401567,-4.838943 14.401567,-4.838943 l -4.000437,-7.863285 c 0,0 -4.000431,3.629207 -10.40113,3.629207 -2.800307,0 -5.400601,-1.209736 -5.400601,-3.830829 0,-6.04868 20.802279,-5.24219 20.802279,-19.154156 C 33.003609,5.645493 26.802935,5.7e-5 16.60182,5.7e-5 6.000662,5.7e-5 0,6.250359 0,6.250359 Z" /></g><g
       transform="translate(231.23303,46.075195)"
       id="g36"
       style="fill:#ffffff"><path
         id="path38"
         style="fill:#ffffff;fill-opacity:1;fill-rule:evenodd;stroke:none"
         d="m 29.803261,28.02569 c -0.200022,5.847056 -3.800425,8.871397 -8.400929,8.871397 -5.400589,0 -9.201002,-3.427589 -10.201111,-8.871397 z m -8.200894,17.339544 c 12.401356,0 19.002076,-9.073017 19.002076,-20.363884 0,-1.209735 -0.200032,-4.234075 -0.200032,-4.234075 H 10.801184 C 11.401249,13.30724 17.201887,9.274788 23.602587,9.274788 c 6.800743,0 12.40135,4.637319 12.40135,4.637319 L 40.204391,6.25045 c 0,0 -6.600719,-6.250301 -17.201877,-6.250301 C 8.800962,1.49e-4 0,10.282902 0,22.581881 0,36.090595 9.00099,45.365234 21.602367,45.365234 Z" /></g><g
       transform="translate(282.43823,47.284668)"
       id="g40"
       style="fill:#ffffff"><path
         id="path42"
         style="fill:#ffffff;fill-opacity:1;fill-rule:evenodd;stroke:none"
         d="M 0,43.147083 H 10.201113 V 35.68705 c 0,-1.612984 -0.200018,-3.024342 -0.200018,-3.024342 h 0.200018 c 2.000219,6.250302 7.000772,11.089245 13.601495,11.089245 1.000109,0 2.000218,-0.201622 2.000218,-0.201622 V 33.065952 c 0,0 -1.000115,0.201626 -2.60029,0.201626 -4.600504,0 -9.601041,-2.621096 -11.601261,-9.073019 C 11.00121,22.178331 10.601166,19.75886 10.601166,17.137766 V -1.6e-4 H 0 Z" /></g><g
       transform="translate(312.84204,47.285156)"
       id="g44"
       style="fill:#ffffff"><path
         id="path46"
         style="fill:#ffffff;fill-opacity:1;fill-rule:evenodd;stroke:none"
         d="m 0,43.147461 h 11.201206 l 8.80098,-26.614189 c 0.800089,-2.621094 1.40016,-5.44381 1.600181,-5.44381 h 0.200003 c 0,0 0.600073,2.822716 1.600182,5.44381 l 8.800951,26.614189 H 43.404739 L 28.003061,2.17e-4 H 15.401677 Z" /></g><g
       transform="translate(359.23328,46.075195)"
       id="g48"
       style="fill:#ffffff"><path
         id="path50"
         style="fill:#ffffff;fill-opacity:1;fill-rule:evenodd;stroke:none"
         d="m 29.616064,28.02569 c -0.200022,5.847056 -3.800409,8.871397 -8.400911,8.871397 -5.400591,0 -9.20102,-3.427589 -10.201129,-8.871397 z m -8.200909,17.339544 c 12.401354,0 19.002078,-9.073017 19.002078,-20.363884 0,-1.209735 -0.200005,-4.234075 -0.200005,-4.234075 H 10.81399 C 11.414056,13.30724 17.214708,9.274788 23.615408,9.274788 c 6.800745,0 12.40135,4.637319 12.40135,4.637319 l 4.20047,-7.661657 c 0,0 -6.600731,-6.250301 -17.201891,-6.250301 -14.201552,0 -23.002515,10.282753 -23.002515,22.581732 -0.400044,13.508714 8.600934,22.783353 21.402333,22.783353 z" /></g></g></svg>
